<?xml version="1.0" standalone="no"?>
<!DOCTYPE svg PUBLIC "-//W3C//DTD SVG 20010904//EN"
 "http://www.w3.org/TR/2001/REC-SVG-20010904/DTD/svg10.dtd">
<svg version="1.0" xmlns="http://www.w3.org/2000/svg"
 width="1280.000000pt" height="905.000000pt" viewBox="0 0 1280.000000 905.000000"
 preserveAspectRatio="xMidYMid meet">
<metadata>
Created by potrace 1.15, written by Peter Selinger 2001-2017
</metadata>
<g transform="translate(0.000000,905.000000) scale(0.100000,-0.100000)"
fill="#000000" stroke="none">
<path d="M4550 8655 c-135 -33 -193 -50 -255 -76 -76 -32 -63 -34 25 -4 40 14
75 23 77 21 2 -2 -22 -16 -54 -32 -32 -16 -60 -32 -61 -37 -2 -4 -34 -27 -70
-51 -37 -24 -83 -58 -102 -76 -38 -35 -31 -31 95 53 114 77 118 77 40 4 -38
-37 -73 -66 -77 -67 -5 0 -92 -107 -121 -150 -6 -8 24 22 66 66 62 66 93 90
166 128 49 25 92 46 95 46 3 0 -18 -21 -46 -47 -67 -62 -210 -243 -243 -308
-14 -27 -18 -39 -8 -25 75 104 139 182 183 225 l52 50 -25 -40 c-111 -174
-159 -259 -171 -305 -4 -14 11 9 34 50 23 41 61 104 85 140 52 77 217 241 294
290 l54 34 101 -12 c92 -10 259 -53 279 -71 4 -5 -14 -4 -40 0 -26 4 -120 10
-208 12 -88 3 -137 3 -110 1 251 -18 388 -50 541 -125 90 -44 100 -65 16 -30
-109 45 -319 82 -455 80 -67 -1 -64 -2 51 -15 152 -16 252 -41 374 -94 86 -37
204 -108 195 -117 -2 -2 -38 13 -80 33 -88 42 -270 82 -397 89 -91 4 -87 3 63
-21 53 -8 128 -26 166 -39 104 -35 251 -109 296 -148 l40 -35 -80 38 c-100 49
-296 93 -455 104 -70 5 -71 4 -25 -5 28 -5 91 -16 140 -25 120 -20 169 -36
300 -99 95 -46 233 -141 221 -152 -2 -2 -24 10 -49 27 -25 17 -70 41 -99 55
-69 31 -287 93 -352 100 -58 6 -61 7 114 -41 155 -43 341 -148 435 -245 l50
-52 -63 43 c-35 23 -91 55 -125 70 -79 37 -287 97 -364 104 -58 6 -58 6 22
-14 134 -35 203 -58 278 -96 88 -44 225 -134 252 -165 l20 -23 -25 15 c-103
65 -137 82 -199 104 -114 38 -251 73 -311 79 l-55 5 45 -10 c110 -26 228 -62
284 -88 97 -44 237 -135 286 -186 l45 -47 -65 47 c-36 26 -94 61 -130 77 -93
43 -268 104 -320 112 -28 5 3 -9 82 -37 70 -24 153 -59 185 -77 67 -38 231
-158 253 -185 8 -10 -14 3 -50 30 -89 65 -325 172 -420 189 -19 4 0 -7 42 -23
137 -52 226 -100 326 -176 93 -70 175 -145 158 -145 -4 0 -28 18 -53 40 -48
42 -242 145 -349 186 -82 30 -107 31 -34 0 88 -37 201 -96 260 -136 73 -50
220 -189 244 -231 19 -33 18 -33 -30 11 -27 25 -65 58 -85 73 -70 53 -360 187
-403 187 -6 0 39 -22 99 -48 158 -69 275 -150 393 -271 71 -73 68 -86 -7 -24
-97 82 -425 242 -448 219 -4 -3 -1 -6 5 -6 24 0 218 -93 282 -135 90 -59 212
-169 260 -235 21 -30 40 -59 40 -63 0 -5 -33 21 -72 57 -59 54 -102 81 -223
140 -147 72 -222 103 -231 93 -2 -2 17 -12 43 -22 240 -90 476 -283 557 -455
16 -34 16 -34 -1 -10 -25 36 -89 95 -156 146 -62 46 -253 143 -344 175 -97 33
-82 21 35 -30 241 -104 408 -250 521 -455 38 -69 35 -87 -3 -21 -44 74 -163
167 -309 241 -127 65 -273 123 -262 103 4 -5 12 -9 18 -9 24 0 257 -119 309
-158 79 -58 195 -169 227 -216 40 -58 101 -173 101 -188 0 -7 -14 11 -31 39
-53 91 -166 185 -312 259 -126 64 -245 114 -270 114 -6 -1 13 -11 43 -24 167
-70 262 -128 399 -246 84 -73 191 -228 206 -301 6 -30 3 -28 -33 27 -58 89
-164 173 -316 251 -126 64 -272 121 -261 102 4 -5 12 -9 18 -9 24 0 257 -119
309 -158 115 -85 211 -186 271 -286 59 -99 79 -155 28 -77 -57 85 -163 166
-326 246 -82 40 -170 79 -195 86 -33 9 -58 26 -92 63 -56 60 -64 57 -11 -6 42
-50 153 -216 153 -229 0 -25 -23 -3 -46 44 -44 87 -173 255 -260 337 -45 43
-45 42 13 -26 124 -147 176 -233 239 -395 31 -81 63 -257 52 -290 -2 -6 -29
20 -60 58 l-56 70 9 47 c23 122 -41 301 -162 451 -67 83 -248 267 -334 338
-40 34 -34 25 33 -48 148 -160 255 -348 288 -507 24 -116 18 -121 -50 -44
l-58 66 -3 78 c-4 141 -70 264 -225 425 -104 108 -216 204 -226 194 -3 -3 -28
12 -56 33 -28 21 -63 44 -77 52 -14 7 -53 30 -86 52 -33 21 -82 53 -110 71
-58 37 -210 133 -305 192 -36 23 -83 50 -105 61 -22 11 -89 46 -150 77 -60 32
-171 82 -245 112 -74 30 -144 60 -155 68 -22 13 -190 78 -265 102 -25 8 -126
34 -225 59 -99 25 -205 55 -235 68 -30 14 -91 29 -135 36 -44 6 -91 16 -105
22 -36 15 -226 32 -355 32 -231 0 -386 -28 -515 -94 -72 -36 -239 -151 -289
-198 -44 -41 -43 -41 31 12 42 31 80 56 83 56 4 0 -11 -20 -32 -44 -60 -68
-240 -396 -218 -396 3 0 18 26 34 58 34 66 113 170 119 154 2 -6 -17 -67 -42
-135 -24 -68 -47 -141 -50 -163 -6 -38 -6 -38 5 -9 6 17 29 77 50 134 53 142
115 239 197 306 61 51 181 121 248 145 l29 10 -30 -22 c-96 -73 -225 -181
-255 -214 -35 -38 -35 -38 -4 -14 18 14 66 53 108 87 86 70 158 114 264 161
95 42 102 40 22 -6 -109 -64 -243 -159 -280 -198 l-35 -38 45 36 c142 112 276
181 454 233 99 28 144 29 56 1 -93 -31 -300 -159 -385 -241 l-50 -47 45 34
c69 54 210 144 255 163 63 27 237 85 254 85 9 0 -9 -11 -40 -24 -92 -37 -313
-182 -364 -238 l-30 -32 40 31 c184 140 384 231 568 256 63 9 41 -9 -29 -22
-75 -15 -300 -125 -391 -192 -72 -52 -64 -49 64 24 128 72 208 103 351 133
132 28 188 30 87 4 -80 -22 -303 -132 -385 -191 -30 -21 -51 -39 -46 -39 4 0
20 8 34 19 55 38 219 119 282 140 69 22 251 62 279 60 9 0 -23 -11 -71 -24
-95 -27 -275 -112 -380 -182 -75 -49 -93 -70 -25 -28 171 106 383 181 537 190
l75 4 -70 -14 c-106 -21 -313 -96 -396 -144 -59 -34 -60 -42 -1 -12 77 39 233
91 313 105 106 18 282 30 254 17 -11 -5 -36 -10 -55 -10 -63 -2 -440 -142
-440 -164 0 -3 48 15 108 39 170 69 305 96 462 92 41 0 59 -3 40 -5 -90 -9
-168 -26 -287 -64 -111 -36 -223 -82 -223 -93 0 -2 41 12 92 31 162 61 229 75
401 80 111 4 162 2 170 -6 8 -8 -6 -11 -54 -11 -69 0 -162 -21 -311 -71 -87
-29 -188 -74 -188 -84 0 -3 12 1 28 8 45 23 243 85 306 96 78 14 349 15 341 1
-3 -5 -36 -10 -72 -10 -73 0 -139 -15 -293 -66 -89 -30 -208 -82 -189 -84 3 0
33 11 67 25 125 51 233 76 372 86 81 5 153 5 180 0 l45 -9 -65 -1 c-36 -1 -94
-8 -130 -16 -103 -24 -281 -83 -330 -110 -58 -31 -49 -31 28 0 162 66 421 103
558 79 47 -8 45 -8 -51 -15 -99 -7 -146 -17 -300 -67 -82 -26 -205 -78 -205
-85 0 -3 40 10 89 29 164 61 232 75 406 81 172 6 203 -3 58 -17 -99 -10 -310
-72 -407 -120 -69 -34 -69 -34 109 26 116 39 146 45 275 54 92 7 161 7 190 2
l45 -10 -65 -1 c-83 -2 -177 -22 -315 -67 -98 -33 -205 -78 -205 -88 0 -2 41
12 92 31 158 60 229 74 393 80 93 3 159 1 175 -5 20 -9 9 -11 -60 -12 -93 0
-157 -13 -300 -59 -99 -32 -223 -82 -217 -87 2 -2 53 14 114 36 61 21 148 46
193 54 153 29 416 16 479 -25 13 -9 13 -9 -4 -3 -37 13 -235 17 -296 5 -119
-24 -399 -125 -399 -145 0 -2 37 12 83 30 149 59 227 76 397 81 137 5 165 3
238 -16 46 -12 98 -28 115 -36 24 -11 25 -14 7 -9 -54 13 -245 16 -299 4 -127
-27 -401 -126 -401 -144 0 -2 33 9 73 25 171 66 242 81 407 86 167 5 251 -7
338 -49 56 -27 47 -33 -19 -14 -66 20 -188 20 -282 1 -96 -20 -289 -85 -352
-119 -27 -15 -41 -24 -30 -20 260 96 388 121 569 111 103 -5 239 -40 280 -72
25 -19 10 -19 -44 0 -65 23 -247 20 -340 -6 -126 -34 -253 -79 -300 -105 -25
-14 -36 -22 -25 -18 239 88 314 104 501 104 112 0 145 -4 220 -26 49 -14 98
-34 109 -45 20 -20 20 -20 -25 -2 -60 23 -248 22 -340 -1 -108 -28 -272 -86
-320 -112 -49 -27 -47 -27 86 21 282 103 603 95 739 -18 l30 -25 -70 24 c-84
28 -233 32 -335 9 -131 -31 -380 -122 -380 -139 0 -2 41 12 92 31 179 67 226
76 418 77 158 1 182 -1 253 -23 56 -17 90 -35 120 -62 l42 -39 -70 27 c-61 23
-86 26 -195 27 -110 1 -140 -3 -255 -32 -128 -32 -249 -71 -242 -78 2 -2 39 7
83 20 160 47 248 59 399 53 176 -6 309 -45 390 -112 l30 -25 -83 30 c-112 41
-250 42 -421 4 -125 -28 -260 -69 -276 -85 -5 -5 9 -3 32 5 23 8 90 27 150 42
95 24 127 27 258 27 218 -1 368 -44 445 -129 19 -21 28 -33 19 -26 -8 6 -47
23 -85 38 -93 35 -226 43 -348 20 -113 -22 -251 -59 -296 -80 -41 -19 -26 -16
110 21 123 33 354 43 466 20 124 -26 254 -87 254 -118 0 -4 -26 3 -57 17 -79
35 -218 50 -326 34 -113 -16 -287 -56 -328 -74 -24 -12 -27 -15 -9 -11 263 58
260 57 415 52 115 -4 166 -11 220 -27 100 -32 158 -63 189 -105 l28 -37 -41
21 c-139 71 -389 73 -646 4 -79 -21 -94 -35 -18 -17 153 36 271 46 392 34 64
-6 142 -18 174 -25 80 -20 197 -77 227 -110 l25 -27 -62 31 c-67 33 -199 61
-292 61 -104 0 -401 -43 -388 -56 2 -2 48 3 103 11 280 42 576 -14 707 -133
43 -41 32 -45 -33 -12 -38 19 -95 36 -157 47 -85 14 -115 15 -233 4 -74 -6
-168 -19 -208 -27 l-74 -15 -76 49 c-77 49 -412 232 -426 232 -4 0 -38 13 -74
29 -316 136 -470 191 -572 205 -50 6 -49 6 78 -31 90 -25 51 -24 -55 2 -55 13
-127 27 -159 30 -53 5 -50 3 30 -14 119 -27 217 -57 282 -88 30 -14 53 -27 52
-28 -2 -2 -41 10 -88 25 -135 45 -425 96 -492 85 -180 -27 -321 -68 -400 -115
-61 -36 -139 -96 -137 -106 0 -3 -10 -18 -24 -32 -13 -15 -33 -40 -43 -57 -10
-16 -37 -52 -59 -80 -64 -78 -74 -94 -42 -65 l28 24 -13 -29 c-8 -17 -22 -45
-32 -64 -19 -35 -66 -156 -66 -169 0 -4 23 38 50 93 28 55 48 92 45 82 -17
-63 -55 -299 -54 -341 1 -44 3 -38 15 41 15 105 50 257 64 281 14 26 12 9 -20
-156 -17 -85 -29 -177 -28 -205 1 -51 2 -51 5 -9 2 23 8 42 14 42 5 0 9 11 9
25 0 14 5 25 10 25 6 0 10 -29 10 -67 1 -70 24 -220 36 -232 3 -3 4 8 0 24 -3
17 -11 86 -16 153 l-10 124 32 91 c42 124 78 201 128 281 23 36 43 66 45 66 2
0 -27 -62 -65 -137 -65 -132 -96 -210 -88 -218 2 -2 23 41 47 96 46 107 116
220 175 284 l37 40 -39 -60 c-67 -104 -153 -265 -166 -315 -4 -14 18 21 48 78
73 137 128 211 228 307 56 54 65 61 26 20 -78 -83 -223 -332 -244 -420 -4 -16
21 24 55 89 33 66 80 144 103 175 53 70 189 213 196 206 3 -3 -19 -31 -50 -63
-31 -31 -74 -86 -95 -122 -51 -85 -128 -230 -135 -255 -3 -11 -9 -29 -12 -40
-4 -11 10 12 30 50 30 58 148 215 160 215 2 0 -12 -28 -32 -62 -42 -74 -89
-173 -98 -208 -4 -14 19 25 51 85 123 232 224 337 397 415 90 40 133 46 51 6
-73 -35 -172 -115 -226 -182 -75 -94 -209 -312 -209 -340 0 -4 19 19 41 52
164 235 356 389 563 453 37 11 78 20 90 20 20 -1 20 -2 1 -6 -184 -42 -291
-115 -447 -300 -65 -79 -148 -195 -148 -208 0 -4 17 15 39 42 52 66 196 203
251 240 54 36 155 92 120 66 -92 -68 -129 -98 -204 -166 -47 -43 -95 -92 -108
-110 -13 -19 10 -2 55 41 105 98 185 155 292 209 108 55 178 80 242 87 l48 6
-51 -13 c-83 -22 -194 -80 -274 -144 -96 -76 -250 -222 -250 -236 0 -6 30 18
68 54 37 37 92 86 122 111 62 49 231 139 317 169 92 31 85 21 -12 -18 -122
-49 -310 -177 -400 -274 l-40 -42 62 50 c156 129 255 184 430 242 98 33 265
53 277 32 5 -8 -13 -11 -62 -11 -79 0 -175 -26 -267 -72 -83 -41 -274 -170
-310 -208 -21 -23 -6 -15 54 28 117 83 219 136 347 178 94 31 124 36 224 39
110 3 112 3 30 -4 -92 -9 -219 -47 -290 -88 -95 -55 -237 -152 -280 -193 l-45
-42 40 30 c82 61 212 141 270 167 153 68 391 113 455 87 21 -9 12 -11 -49 -11
-84 -1 -185 -28 -276 -73 -89 -45 -275 -171 -315 -213 -31 -33 -28 -32 33 14
138 104 247 158 427 213 58 17 100 23 182 23 59 0 111 -4 117 -10 7 -7 -19
-10 -77 -10 -98 0 -210 -32 -311 -89 -86 -49 -231 -149 -276 -191 l-40 -37 40
28 c168 120 254 167 400 215 84 27 119 33 218 37 79 3 123 0 130 -7 8 -8 -10
-11 -65 -11 -83 0 -201 -31 -290 -76 -72 -37 -280 -179 -313 -214 -26 -28 -21
-26 30 12 143 107 233 154 400 208 123 39 295 53 330 26 19 -14 14 -15 -66
-16 -92 0 -192 -26 -287 -74 -68 -35 -250 -157 -297 -200 -26 -24 -3 -12 70
37 139 94 182 116 325 162 92 30 135 39 217 43 83 4 105 2 124 -12 23 -15 20
-16 -53 -16 -83 0 -200 -31 -293 -77 -98 -49 -335 -217 -335 -237 0 -3 32 19
70 48 112 84 215 138 350 183 182 61 338 69 379 19 10 -11 -3 -14 -76 -13 -99
1 -214 -31 -313 -86 -110 -62 -341 -227 -317 -227 4 0 33 19 64 43 200 149
392 226 590 235 84 3 117 1 129 -9 14 -11 13 -14 -8 -25 -22 -12 -21 -13 12
-8 21 3 42 0 53 -8 15 -11 1 -13 -90 -13 -165 0 -265 -39 -483 -187 -98 -66
-160 -117 -143 -118 6 0 15 5 18 10 10 17 175 125 240 157 108 55 276 103 378
108 75 5 87 3 67 -6 -14 -7 -60 -28 -103 -47 -42 -19 -76 -37 -74 -38 1 -2 43
13 92 32 87 35 275 88 283 80 2 -3 -17 -13 -42 -25 -25 -11 -70 -36 -99 -55
-30 -20 -61 -36 -70 -36 -27 0 -179 -51 -232 -77 -106 -54 -358 -232 -328
-233 6 0 15 5 18 10 10 16 173 124 235 155 56 28 251 98 257 91 2 -1 -28 -31
-66 -64 -38 -34 -84 -81 -102 -105 -26 -33 -17 -27 42 28 40 39 95 88 121 108
45 37 108 64 108 47 0 -5 -4 -10 -8 -12 -5 -1 -30 -31 -55 -65 -35 -45 -64
-71 -114 -98 -132 -73 -341 -220 -329 -233 3 -2 24 11 48 31 92 75 290 188
304 174 3 -2 -9 -25 -26 -50 -17 -25 -37 -61 -45 -80 -7 -18 -31 -45 -52 -60
-21 -14 -56 -42 -78 -62 -37 -34 -35 -33 26 9 37 25 70 46 73 46 4 0 15 8 26
18 10 9 32 25 49 35 25 15 31 15 31 4 0 -39 -32 -85 -84 -121 -30 -21 -61 -45
-68 -54 -7 -9 16 4 51 27 l64 44 -6 -49 -6 -49 17 53 c14 45 24 58 60 79 47
28 53 21 27 -40 -19 -45 -19 -73 0 -32 l13 30 1 -26 c1 -20 -9 -32 -47 -57
-26 -17 -56 -40 -67 -52 -11 -12 8 -3 42 19 33 23 63 41 66 41 2 0 8 -26 12
-57 7 -55 6 -58 -22 -82 l-28 -24 27 17 c31 18 25 27 47 -74 8 -38 9 -32 4 33
-9 119 16 97 48 -43 6 -30 21 -73 31 -95 10 -22 16 -32 13 -22 -37 132 -61
257 -47 257 5 0 12 -26 15 -58 9 -85 26 -125 20 -44 -7 81 10 82 27 0 15 -79
48 -186 59 -193 5 -2 0 23 -10 56 -10 33 -19 67 -19 76 0 17 133 80 245 116
240 75 525 66 614 -20 24 -23 29 -32 16 -27 -90 34 -164 45 -250 39 -113 -8
-153 -17 -295 -72 -132 -52 -225 -97 -236 -115 -6 -10 -5 -10 7 -1 22 17 225
99 299 119 102 29 315 24 444 -10 55 -14 105 -31 110 -37 8 -7 2 -7 -18 1 -16
6 -36 8 -43 5 -8 -2 -34 0 -59 5 -57 13 -206 -3 -294 -32 -140 -45 -350 -137
-350 -153 0 -2 33 11 73 30 41 18 114 46 163 63 80 27 98 29 177 25 49 -3 84
-9 77 -13 -6 -4 28 -10 77 -13 48 -4 102 -11 118 -16 27 -8 24 -9 -28 -10 -61
-1 -229 -35 -256 -52 -13 -8 -12 -9 5 -4 50 13 161 35 179 34 26 0 -99 -49
-144 -56 -20 -3 -28 -8 -21 -13 8 -5 -9 -20 -48 -44 -33 -20 -65 -43 -72 -51
-7 -9 27 9 75 40 48 30 93 55 99 55 12 0 7 -5 -45 -42 -40 -29 -155 -166 -146
-174 3 -3 -10 -38 -27 -77 -36 -78 -58 -147 -27 -82 28 57 25 25 -3 -43 -25
-59 -52 -223 -43 -257 2 -11 6 0 7 25 1 25 8 68 15 95 12 49 13 49 15 15 l2
-35 14 30 c13 29 13 28 9 -30 -4 -53 -3 -56 5 -20 5 22 9 52 9 68 1 25 60 181
67 174 2 -1 -1 -20 -5 -42 -13 -58 -23 -160 -16 -153 4 3 11 39 16 79 7 45 22
94 40 128 23 43 28 49 24 26 -7 -40 -25 -168 -25 -179 0 -5 2 -7 5 -4 3 3 12
44 20 92 8 50 23 101 35 122 23 37 40 41 20 4 -6 -11 -13 -53 -15 -93 -3 -64
-2 -67 6 -27 5 25 12 52 16 60 3 8 7 27 8 42 2 14 10 37 20 50 l17 23 -7 -25
c-9 -32 -13 -62 -19 -130 -5 -56 -4 -55 18 39 3 14 11 29 17 35 9 8 10 7 5 -2
-4 -7 -10 -39 -12 -70 l-3 -57 14 39 c9 22 13 49 10 60 -3 12 -2 15 1 8 5 -10
9 -10 20 -1 8 6 11 15 8 20 -3 5 1 19 8 31 6 13 13 29 14 36 4 20 33 62 45 62
12 0 -4 -31 -26 -50 -11 -9 -12 -15 -5 -20 7 -4 4 -15 -9 -32 -11 -14 -18 -28
-15 -31 3 -3 -1 -16 -9 -29 -16 -27 -16 -54 1 -51 7 2 12 -3 12 -10 1 -6 7 0
15 14 9 16 29 30 56 38 23 7 52 19 63 26 26 16 116 35 159 34 28 -1 26 -3 -18
-14 -27 -7 -63 -14 -78 -14 -25 -1 -137 -47 -137 -56 0 -2 25 5 56 15 84 29
163 40 224 31 54 -7 53 -7 -50 -15 -65 -5 -122 -16 -150 -28 -25 -10 -34 -16
-20 -13 97 20 161 25 220 16 34 -6 65 -13 68 -16 3 -3 -30 -5 -74 -6 -43 0
-101 -4 -129 -8 -49 -7 -47 -7 43 -15 102 -9 124 -26 35 -27 -32 0 -76 -4 -98
-9 -33 -7 -27 -8 40 -7 47 1 80 -2 80 -8 0 -5 -26 -9 -60 -8 -33 0 -46 -1 -30
-3 97 -14 102 -18 25 -24 l-75 -6 68 -2 c59 -2 67 -4 67 -21 0 -17 -8 -20 -52
-23 l-53 -4 52 -8 c57 -9 81 -35 35 -37 -21 -1 -22 -2 -7 -6 11 -3 25 -9 30
-15 7 -7 -8 -8 -45 -4 -37 3 -47 2 -30 -3 14 -5 38 -9 54 -10 15 -1 42 -12 58
-26 25 -21 40 -25 79 -24 58 3 88 -16 45 -27 -17 -4 -57 1 -106 15 -42 11 -95
20 -116 20 -33 -1 -28 -4 31 -15 111 -22 138 -34 175 -76 26 -29 44 -39 69
-41 27 -2 44 -14 86 -59 39 -41 52 -63 48 -77 -4 -17 -9 -19 -24 -10 -24 12
-24 11 1 -51 25 -64 25 -73 0 -65 l-20 7 20 -54 c11 -29 20 -62 20 -72 0 -18
-1 -18 -20 -1 -26 23 -25 19 5 -49 14 -31 25 -64 25 -72 0 -15 -3 -15 -26 1
-26 16 -26 16 -19 -7 4 -12 16 -45 26 -73 25 -67 25 -77 -5 -69 l-25 6 14 -44
c7 -23 18 -56 24 -71 16 -42 14 -50 -13 -43 l-25 6 15 -52 c9 -28 20 -62 25
-75 13 -34 12 -36 -16 -29 -24 6 -25 5 -19 -21 4 -16 16 -52 26 -81 22 -59 20
-69 -11 -52 -24 13 -25 16 9 -108 l18 -64 -24 6 c-13 4 -24 5 -24 4 0 -2 11
-39 25 -83 30 -98 30 -97 0 -89 l-24 6 21 -74 c34 -120 34 -121 9 -113 -24 7
-24 4 5 -102 19 -70 18 -74 -11 -67 l-24 6 29 -86 c16 -47 26 -87 22 -87 -4
-1 -15 -1 -24 0 -19 2 -15 -19 16 -93 21 -50 20 -54 -8 -58 l-25 -3 30 -68
c33 -78 35 -92 14 -83 -21 8 -19 -22 5 -80 11 -26 18 -49 15 -52 -3 -4 -27 2
-53 13 -170 67 -288 94 -336 76 -14 -5 0 -11 47 -18 41 -7 90 -25 130 -47 63
-36 217 -178 217 -201 0 -8 -21 -6 -72 7 -121 32 -204 34 -287 9 -43 -13 -85
-34 -104 -51 l-32 -30 57 20 c94 33 283 25 396 -16 53 -20 54 -34 2 -34 -55 0
-136 -19 -197 -46 -51 -22 -153 -107 -153 -127 0 -5 20 9 44 31 47 43 120 72
238 92 34 6 73 13 86 15 35 8 27 -9 -39 -77 -85 -88 -95 -115 -16 -42 62 59
100 79 189 98 36 8 64 -28 73 -95 6 -42 3 -58 -17 -99 -20 -39 -21 -47 -8 -40
38 20 70 111 70 196 l0 36 53 -7 c64 -8 212 -77 250 -118 15 -16 27 -24 27
-18 0 23 -84 101 -134 125 -29 14 -82 32 -119 42 -37 9 -67 20 -67 24 0 11
107 55 196 81 89 25 253 31 279 9 9 -7 15 -8 15 -2 0 5 -25 20 -56 32 -47 19
-67 22 -132 17 -42 -3 -111 -15 -152 -26 -41 -11 -78 -21 -82 -21 -21 0 -1 21
67 73 90 69 205 126 277 137 l53 8 -51 1 c-93 2 -219 -47 -347 -135 -28 -19
-52 -32 -55 -30 -2 3 3 23 12 46 20 50 20 61 1 54 -19 -8 -19 7 0 70 13 42 13
47 0 42 -25 -9 -26 10 -5 86 24 86 23 83 7 69 -24 -19 -25 -2 -6 60 24 78 24
88 -1 82 -24 -6 -24 -12 0 65 24 77 25 96 5 88 -17 -6 -20 19 -6 56 4 13 11
36 15 51 5 23 4 28 -11 25 -11 -2 -17 2 -15 11 30 140 30 142 16 130 -25 -20
-28 -1 -11 61 21 73 21 71 0 63 -18 -7 -18 -7 10 110 14 57 12 68 -11 45 -17
-17 -16 4 3 66 19 61 19 67 0 60 -20 -8 -20 25 0 90 19 62 19 72 0 56 -12 -10
-15 -10 -15 1 0 14 20 91 35 139 7 22 6 23 -9 11 -25 -21 -28 -9 -11 60 19 83
19 100 -1 92 -16 -6 -15 0 7 87 5 19 9 43 9 54 0 16 -2 17 -17 5 -15 -13 -16
-9 -10 46 3 33 9 78 13 99 5 28 4 37 -4 32 -19 -12 -14 47 8 106 23 62 24 66
8 50 -7 -7 -16 -12 -20 -12 -14 0 -9 26 17 85 25 56 25 57 5 52 -36 -9 -22 19
33 69 67 61 181 118 284 143 43 10 69 19 58 20 -11 0 -36 -3 -55 -8 -19 -5
-48 -12 -65 -15 -70 -14 12 18 90 36 75 17 37 18 -44 2 -23 -5 -32 -4 -28 4 4
5 39 16 78 22 39 7 68 14 65 17 -3 3 -33 0 -66 -6 -59 -12 -100 -8 -100 9 0 4
24 8 53 8 28 0 71 3 95 7 44 7 68 25 33 25 -26 0 -27 15 -2 32 12 8 17 23 15
40 -2 22 2 27 24 31 l27 4 -27 2 c-16 0 -28 5 -28 10 0 5 12 12 28 14 l27 4
-27 2 c-16 0 -28 6 -28 12 0 7 18 9 53 5 35 -4 44 -3 27 3 -14 5 -40 9 -57 10
-18 1 -33 6 -33 12 0 8 24 10 75 7 86 -4 80 2 -27 28 -80 19 -93 28 -58 37 25
6 157 -9 193 -22 35 -14 47 -14 27 -1 -13 9 -169 60 -225 74 -23 6 145 -2 190
-9 17 -2 5 3 -25 11 -35 11 -100 17 -180 18 -113 1 -129 -1 -169 -22 -28 -15
-42 -19 -39 -10 2 7 22 22 44 33 33 17 58 20 174 19 120 0 143 -3 209 -27 41
-15 77 -25 79 -22 3 3 -1 5 -9 5 -12 0 -12 2 0 9 10 7 -9 16 -65 34 -159 50
-258 57 -342 21 -30 -12 -33 -12 -22 0 6 8 45 22 86 32 102 22 237 9 343 -35
41 -17 77 -29 79 -27 9 10 -136 68 -228 92 l-55 14 58 -6 c77 -7 194 -40 236
-67 19 -11 31 -15 27 -9 -9 16 -3 15 41 -3 19 -8 38 -15 40 -15 16 0 -33 41
-111 92 -48 32 -85 58 -81 58 13 0 105 -49 149 -79 24 -17 46 -27 50 -24 3 4
20 -6 36 -22 16 -16 32 -26 36 -23 3 3 -25 39 -63 79 -37 40 -54 64 -38 52 17
-12 41 -33 54 -47 14 -14 29 -26 35 -26 6 1 -18 28 -54 61 -36 34 -51 52 -35
41 17 -11 48 -39 69 -61 22 -22 43 -38 47 -35 4 2 10 0 14 -5 3 -6 -4 -8 -15
-6 -19 4 -19 1 7 -28 15 -18 35 -44 44 -57 16 -24 16 -23 5 20 -6 25 -14 50
-17 55 -23 36 -49 88 -46 91 10 11 74 -88 93 -146 12 -36 23 -55 23 -42 1 12
-8 48 -19 79 -11 31 -18 58 -16 61 8 7 30 -43 42 -98 l13 -55 -4 50 c-2 28 -8
63 -14 78 -6 16 -13 44 -15 62 -3 19 -13 47 -24 62 -30 44 -34 53 -23 53 13 0
62 -90 55 -101 -2 -5 5 -22 17 -38 12 -16 30 -62 40 -103 13 -49 17 -58 13
-28 -9 74 -11 83 -27 135 l-16 50 25 -30 c30 -37 55 -118 64 -210 l7 -70 1 90
c1 50 -3 109 -7 133 -7 34 -6 40 5 31 22 -18 37 -79 45 -189 l7 -105 -2 138
c-2 132 6 148 22 48 4 -25 6 -89 6 -141 -1 -74 0 -85 6 -50 12 68 13 200 1
245 -8 35 -8 38 4 22 22 -30 40 -154 39 -262 -1 -81 0 -90 7 -50 4 28 8 82 9
120 2 79 6 77 19 -10 7 -52 9 -54 10 -20 1 57 -24 203 -43 250 -24 56 -3 31
39 -46 43 -80 46 -70 4 14 -38 74 -81 140 -123 186 l-31 35 40 -28 c22 -15 69
-58 104 -95 35 -36 58 -57 50 -46 -25 38 -164 177 -192 191 -16 9 -27 18 -24
20 8 8 85 -34 147 -79 30 -22 47 -31 36 -19 -10 12 -47 40 -82 64 -35 23 -64
45 -64 48 0 4 -6 7 -12 7 -7 1 -35 11 -63 23 l-50 21 45 -6 c25 -3 82 -21 127
-39 45 -18 80 -29 78 -25 -3 4 -30 17 -60 30 -31 13 -54 28 -51 33 4 12 7 12
46 2 18 -4 16 -2 -7 9 -30 14 -45 35 -25 35 4 0 6 16 4 35 -5 44 6 105 19 105
6 0 8 -16 5 -37 -6 -36 -5 -37 4 -8 6 17 13 69 17 118 6 92 10 97 53 72 33
-19 61 -21 39 -2 -15 12 -45 155 -35 165 3 3 44 -9 90 -25 103 -36 105 -26 3
12 -39 15 -81 31 -93 35 -14 5 -24 23 -31 56 -7 27 -15 57 -18 67 -12 28 30
21 56 -10 20 -26 21 -27 14 -4 -7 22 -5 23 27 16 18 -4 84 -23 146 -44 61 -20
112 -36 112 -34 0 9 -91 46 -185 74 -117 34 -129 42 -165 103 l-23 38 109 -6
c109 -5 231 -32 344 -75 75 -29 74 -19 -2 13 -70 30 -122 45 -280 84 -73 18
-115 34 -130 50 l-22 22 105 0 c130 0 245 -19 380 -64 57 -18 105 -33 107 -31
6 5 -106 48 -199 76 -157 46 -236 60 -337 58 -51 -1 -95 1 -99 5 -9 9 53 32
141 51 63 14 108 17 225 12 145 -5 233 -22 370 -71 54 -20 64 -20 31 -1 -32
18 -189 68 -300 95 -103 24 -252 27 -325 5 -27 -9 -45 -11 -40 -6 6 5 50 21
99 35 76 23 107 26 233 26 161 0 243 -13 396 -65 54 -18 95 -29 90 -25 -15 14
-136 58 -253 92 -106 30 -126 33 -255 33 -77 0 -153 -4 -170 -8 l-30 -8 25 15
c67 42 151 58 295 59 166 0 242 -12 393 -62 61 -20 112 -35 112 -34 0 7 -119
55 -170 70 -204 56 -238 63 -330 63 -136 1 -92 22 59 28 175 7 283 -12 526
-92 11 -3 -7 7 -40 23 -111 53 -345 110 -460 112 -67 1 -68 1 -30 11 22 5 111
8 200 5 140 -4 173 -9 265 -35 58 -17 123 -38 145 -47 22 -9 36 -12 30 -7 -31
32 -329 120 -445 132 -81 8 -79 9 40 5 69 -2 161 -11 205 -20 77 -16 273 -90
325 -122 22 -14 23 -14 10 0 -37 38 -296 146 -403 168 -28 6 -68 15 -87 19
-35 8 -35 8 -5 9 38 1 202 -25 280 -45 68 -18 206 -77 284 -124 30 -17 55 -29
58 -27 2 3 -22 21 -54 40 -134 80 -325 163 -401 173 -29 3 -52 10 -52 15 0 8
21 6 162 -17 126 -21 200 -46 334 -114 66 -33 108 -51 94 -39 -38 31 -318 166
-380 183 -49 14 -50 15 -14 11 125 -15 322 -94 469 -189 64 -42 67 -43 31 -11
-33 30 -186 123 -291 178 -51 27 -18 19 73 -19 48 -20 109 -49 137 -66 62 -38
193 -138 219 -166 10 -12 22 -19 27 -16 9 5 72 -72 137 -168 25 -38 47 -68 49
-68 11 0 -55 104 -122 195 -40 55 -81 114 -91 130 l-17 30 23 -20 c12 -11 45
-46 71 -78 51 -61 64 -67 27 -14 l-22 32 27 -24 c15 -14 29 -22 32 -19 3 3
-29 36 -71 74 -42 38 -108 102 -147 142 -40 40 -86 82 -105 94 -54 33 -30 31
59 -7 104 -44 113 -44 27 0 -80 41 -252 107 -328 125 -118 29 -402 9 -560 -39
-144 -44 -198 -63 -265 -96 -38 -19 -98 -45 -133 -59 -35 -14 -84 -40 -110
-59 -26 -19 -99 -61 -162 -94 l-115 -61 -170 4 c-172 4 -301 23 -261 39 17 8
259 0 321 -10 l30 -5 -30 10 c-16 6 -77 17 -135 23 l-105 13 60 18 c116 35
191 46 330 47 119 1 132 3 85 10 -85 14 -531 -8 -562 -27 -7 -4 -8 -2 -4 4 15
24 135 82 221 107 138 40 263 56 400 50 85 -3 108 -2 80 5 -22 5 -117 9 -211
9 -149 1 -184 -2 -267 -23 -52 -13 -114 -36 -137 -51 -52 -33 -63 -27 -16 9
77 59 182 105 306 137 115 28 139 31 290 31 110 1 152 3 125 9 -22 4 -116 8
-210 8 -152 1 -180 -2 -265 -24 -52 -14 -110 -35 -129 -46 -56 -33 -45 -15 16
28 89 62 154 91 281 126 112 30 126 32 300 32 127 0 171 3 145 9 -21 5 -121 9
-223 9 -162 1 -195 -1 -270 -21 -47 -13 -107 -36 -134 -53 -68 -42 -68 -30 1
18 173 121 397 179 648 169 84 -4 107 -2 75 4 -25 5 -122 9 -216 9 -187 1
-296 -17 -381 -64 -65 -35 -52 -20 25 29 84 54 120 70 247 104 92 24 115 27
292 27 242 0 219 16 -34 23 -191 5 -271 -5 -388 -49 l-50 -19 25 20 c47 38
165 90 265 117 93 26 113 28 297 28 251 0 225 16 -37 23 -169 4 -200 2 -280
-17 -49 -12 -107 -31 -129 -42 -59 -31 -54 -15 6 19 174 100 383 134 663 110
56 -5 71 -4 50 3 -84 26 -411 36 -495 14 -21 -5 -22 -5 -8 5 10 6 73 23 140
37 112 23 136 25 278 19 85 -3 169 -8 185 -11 17 -2 5 3 -25 11 -61 17 -412
25 -485 11 -56 -10 -23 7 40 22 149 35 363 30 540 -13 55 -14 101 -23 103 -21
7 7 -123 43 -238 66 -80 17 -149 24 -227 24 -166 0 -99 16 92 22 144 5 172 3
280 -20 66 -14 129 -28 140 -31 11 -3 5 1 -13 9 -86 40 -366 90 -462 82 -45
-4 -58 -3 -42 4 40 15 253 31 330 24 41 -4 121 -18 180 -31 58 -13 107 -22
109 -20 5 5 -132 43 -227 63 -55 11 -130 17 -212 18 -176 0 -136 18 53 23 179
5 257 -6 423 -62 141 -47 146 -36 7 14 -128 47 -257 80 -341 89 -73 8 -71 8
50 10 158 1 223 -9 384 -63 141 -47 146 -36 7 14 -131 48 -299 90 -366 91 -56
1 -58 2 -25 10 39 11 235 3 321 -12 31 -5 103 -25 160 -43 148 -49 149 -49 94
-22 -91 45 -329 114 -405 117 -30 2 -31 3 -8 6 15 2 79 -3 143 -12 119 -16
234 -51 363 -110 39 -19 72 -32 72 -30 0 11 -121 70 -225 110 -167 64 -168 65
-110 58 78 -8 173 -31 250 -60 120 -45 250 -168 367 -347 41 -64 49 -67 19 -7
-22 41 -129 191 -168 233 -37 39 -25 53 20 22 21 -14 41 -23 44 -21 3 3 -54
45 -125 92 -140 92 -189 134 -112 95 91 -46 255 -173 245 -190 -3 -4 20 -26
50 -49 30 -23 55 -39 55 -35 0 25 -276 276 -341 310 -53 27 -26 25 64 -5 48
-17 87 -28 87 -26 0 10 -106 49 -220 81 -161 46 -276 60 -367 47 -63 -10 -96
-17 -272 -59 -36 -8 -94 -29 -130 -45 -36 -17 -91 -40 -121 -51 -30 -11 -75
-34 -99 -50 -24 -16 -75 -45 -112 -64 -38 -19 -88 -51 -110 -72 -23 -20 -70
-55 -105 -77 -34 -22 -112 -71 -172 -108 -122 -78 -261 -183 -342 -262 -30
-29 -89 -81 -130 -115 -41 -34 -93 -79 -115 -100 -68 -64 -267 -272 -321 -335
-44 -51 -60 -63 -115 -81 -35 -12 -73 -24 -84 -28 -11 -4 12 23 50 60 39 37
61 62 49 56 -12 -6 -54 -42 -95 -80 -41 -38 -94 -79 -118 -92 l-45 -22 19 28
c10 16 32 47 49 69 24 32 25 36 7 20 -13 -11 -44 -47 -68 -80 -24 -32 -58 -67
-75 -78 l-30 -18 22 35 c33 54 18 43 -23 -16 -20 -29 -56 -70 -81 -90 -25 -21
-60 -63 -78 -93 -37 -61 -51 -70 -38 -24 34 119 166 273 336 395 60 43 211
119 287 143 21 7 37 15 34 17 -14 14 -292 -106 -388 -169 -81 -51 -158 -125
-202 -192 -34 -52 -38 -56 -32 -28 13 61 89 187 159 261 123 130 246 212 431
288 44 18 75 33 69 34 -24 1 -130 -42 -256 -103 -154 -75 -271 -167 -326 -257
-37 -61 -34 -33 6 45 61 122 168 240 302 332 52 35 203 112 273 138 26 10 46
20 43 22 -8 8 -132 -40 -243 -93 -121 -59 -199 -112 -276 -188 l-49 -47 29 53
c57 107 248 280 387 350 33 17 97 46 141 64 44 18 75 33 69 34 -25 1 -133 -43
-258 -104 -146 -72 -260 -159 -314 -242 -50 -74 -38 -41 19 52 114 190 303
340 544 435 82 32 91 42 18 20 -33 -10 -125 -50 -204 -89 -160 -78 -278 -168
-325 -248 -14 -24 -28 -44 -30 -44 -2 0 5 23 15 50 30 79 116 176 222 252 115
82 203 127 339 173 72 24 91 33 60 29 -49 -7 -234 -71 -319 -109 -60 -28 -136
-80 -195 -134 l-39 -36 23 33 c61 90 202 203 340 273 35 18 116 50 180 70 63
21 105 39 92 39 -27 0 -214 -59 -312 -100 -94 -39 -201 -112 -262 -179 l-51
-56 41 62 c58 86 122 148 227 219 118 80 166 104 305 149 145 47 144 46 90 39
-48 -7 -227 -65 -320 -104 -78 -33 -194 -115 -247 -174 l-46 -51 53 77 c65 97
123 151 251 234 104 69 182 104 330 149 69 21 76 24 36 20 -50 -7 -243 -70
-334 -110 -78 -35 -199 -122 -234 -169 -30 -40 -31 -40 -24 -11 14 64 106 163
230 250 117 81 172 108 330 161 143 48 107 50 -45 2 -148 -47 -238 -86 -320
-141 -98 -65 -57 -18 55 63 136 98 186 122 370 182 67 21 79 27 45 23 -51 -7
-226 -65 -316 -105 -34 -15 -90 -47 -125 -70 l-64 -43 40 42 c46 48 183 145
265 186 30 16 114 48 185 72 72 23 112 40 90 37 -110 -17 -372 -115 -444 -167
-71 -51 -79 -53 -41 -13 52 56 249 184 334 217 40 16 111 40 157 54 69 21 76
24 36 20 -50 -7 -243 -70 -334 -110 -29 -13 -74 -38 -100 -56 -28 -19 -42 -25
-33 -14 28 35 224 155 304 186 44 17 128 44 186 59 117 32 119 38 5 15 -123
-26 -316 -92 -380 -130 -50 -30 -56 -32 -35 -11 14 14 73 54 133 90 101 61
203 102 347 140 33 8 45 15 30 15 -63 2 -333 -86 -425 -139 -64 -37 -67 -37
-35 -10 49 43 191 114 296 149 75 25 185 46 329 64 17 2 4 5 -28 6 -112 2
-353 -45 -456 -90 -92 -41 -44 -6 59 43 124 58 219 86 365 107 86 13 114 20
82 20 -107 2 -385 -52 -458 -90 -23 -11 -43 -18 -46 -15 -3 3 50 32 118 65
130 63 224 93 349 110 41 6 86 13 100 15 14 2 1 4 -28 5 -52 1 -245 -29 -327
-50 -22 -6 -68 -24 -102 -39 -35 -16 -63 -27 -63 -24 0 12 95 61 185 94 125
47 222 67 385 78 l125 9 -113 2 c-154 2 -306 -16 -400 -45 -15 -5 -15 -4 -2 5
23 16 218 79 285 91 33 6 116 15 185 19 l125 8 -125 2 c-143 1 -282 -13 -355
-36 -79 -25 -82 -25 -45 -4 19 11 89 38 156 60 118 39 183 50 404 65 30 2 -26
2 -125 0 -99 -3 -198 -6 -220 -9 -22 -2 3 7 55 22 84 23 113 26 256 26 88 0
171 -4 185 -7 22 -7 23 -6 4 6 -13 8 -85 14 -215 17 l-195 6 75 18 c41 10 125
21 185 24 136 7 200 -9 259 -65 22 -20 32 -27 22 -14 -11 12 -17 24 -15 27 9
8 89 -37 201 -111 59 -40 108 -71 108 -69 0 9 -135 108 -217 159 -51 32 -90
62 -88 67 3 4 37 -1 76 -12 40 -11 74 -18 76 -15 6 6 -105 40 -182 56 -56 12
-162 57 -153 65 2 2 37 -3 77 -11 81 -17 181 -54 294 -109 42 -21 61 -28 47
-16 -57 46 -347 171 -395 171 -14 0 -25 4 -25 10 0 5 37 11 83 13 64 2 55 3
-43 5 -240 4 -430 -37 -542 -117 -29 -21 -73 -48 -98 -61 -55 -27 -140 -89
-200 -145 -156 -144 -295 -295 -322 -349 -11 -22 -42 -66 -68 -96 -148 -175
-213 -259 -292 -379 -48 -74 -88 -138 -88 -142 0 -9 -87 -158 -127 -217 -12
-18 -49 -90 -83 -160 -33 -70 -71 -147 -84 -172 -12 -25 -44 -101 -71 -170
-26 -69 -56 -145 -66 -170 -10 -25 -35 -90 -55 -145 -20 -55 -46 -122 -59
-150 -12 -27 -28 -68 -34 -90 -7 -22 -15 -47 -18 -55 -4 -8 -6 -19 -5 -25 1
-5 -7 -50 -18 -100 -10 -49 -19 -79 -19 -65 0 14 6 52 14 85 8 33 14 65 14 70
-1 23 -22 -46 -38 -123 l-17 -83 -23 78 c-12 43 -28 107 -36 143 -7 36 -21 88
-30 115 -10 28 -24 79 -31 114 -7 35 -22 82 -33 105 -11 22 -23 59 -27 81 -4
22 -14 58 -22 80 -8 22 -27 81 -42 130 -15 50 -40 122 -55 160 -15 39 -44 117
-65 175 -52 146 -86 224 -169 382 -39 76 -87 173 -105 215 -40 93 -133 258
-186 328 -20 28 -47 69 -58 91 -47 92 -293 365 -432 479 -36 29 -84 71 -106
92 -78 72 -211 154 -290 179 -101 32 -240 32 -374 -1z m-100 -109 c-19 -19
-152 -88 -157 -82 -5 5 148 96 162 96 5 0 3 -6 -5 -14z m257 8 c-3 -3 -12 -4
-19 -1 -8 3 -5 6 6 6 11 1 17 -2 13 -5z m3713 -119 c0 -2 -10 -9 -22 -15 -22
-11 -22 -10 -4 4 21 17 26 19 26 11z m-170 -105 c0 -5 -5 -10 -11 -10 -5 0 -7
5 -4 10 3 6 8 10 11 10 2 0 4 -4 4 -10z m-140 -125 c-13 -14 -28 -25 -34 -25
-6 0 3 11 19 25 39 31 45 32 15 0z m-2649 -50 c7 -13 3 -12 -10 5 -11 14 -21
30 -21 35 0 11 14 -7 31 -40z m84 -105 c17 -33 19 -44 6 -36 -10 6 -33 66 -26
66 3 0 11 -13 20 -30z m2435 27 c0 -1 -26 -27 -57 -57 -31 -30 -51 -46 -43
-35 34 49 100 110 100 92z m-2361 -139 c11 -32 19 -58 17 -58 -10 0 -56 91
-56 111 0 33 14 13 39 -53z m-3392 26 c-3 -3 -12 -4 -19 -1 -8 3 -5 6 6 6 11
1 17 -2 13 -5z m196 -11 c-7 -2 -19 -2 -25 0 -7 3 -2 5 12 5 14 0 19 -2 13 -5z
m249 -34 c44 -10 49 -13 31 -20 -19 -7 -117 12 -131 25 -9 10 44 7 100 -5z
m3008 -55 c27 -88 25 -108 -5 -59 -16 26 -24 55 -25 83 0 23 2 42 5 42 2 0 13
-30 25 -66z m-2799 -4 c31 -7 28 -8 -21 -8 -30 0 -71 6 -90 14 -35 14 -35 14
21 8 31 -3 71 -10 90 -14z m109 -45 c19 -10 30 -12 30 -4 0 15 54 2 115 -28
58 -30 127 -74 122 -79 -2 -2 -33 8 -68 22 -35 15 -116 44 -179 65 -82 28
-105 39 -82 39 18 0 46 -7 62 -15z m2759 -78 c11 -48 16 -87 12 -87 -4 0 -16
19 -27 43 -15 30 -19 56 -16 90 2 27 6 46 8 44 2 -2 13 -43 23 -90z m-2427
-13 c25 -13 76 -46 113 -74 37 -28 69 -49 71 -47 2 2 -15 26 -38 52 l-43 49
45 -25 c44 -24 194 -158 186 -166 -2 -2 -66 27 -142 65 -77 39 -163 80 -191
92 -29 12 -53 27 -53 33 0 6 -10 22 -22 35 l-23 24 25 -7 c14 -4 46 -18 72
-31z m-1642 13 c0 -2 -10 -12 -22 -23 l-23 -19 19 23 c18 21 26 27 26 19z
m5963 -82 c-26 -41 -48 -73 -50 -71 -6 6 35 85 61 118 40 51 34 28 -11 -47z
m-1834 -70 l0 -40 -14 34 c-16 36 -19 79 -8 108 6 14 9 8 15 -22 4 -22 7 -58
7 -80z m-4278 58 c-5 -10 -24 -34 -41 -53 -31 -34 -31 -34 -15 -5 27 47 80
101 56 58z m2146 -60 c53 -37 169 -161 160 -170 -2 -1 -34 14 -71 33 -44 24
-74 47 -85 67 -9 16 -33 52 -55 80 -42 55 -40 54 51 -10z m2188 -103 l5 -65
-24 52 c-21 46 -23 56 -13 100 l10 48 8 -35 c4 -19 10 -64 14 -100z m1630 -82
c-40 -73 -54 -93 -49 -68 9 49 41 127 72 180 26 43 27 44 30 18 2 -18 -16 -61
-53 -130z m-3569 0 c25 -32 42 -58 39 -58 -4 0 -26 11 -49 25 -32 18 -51 40
-73 85 l-31 59 34 -27 c19 -15 55 -53 80 -84z m1991 -68 c-2 -23 -4 -22 -20
14 -17 38 -16 112 2 141 7 12 23 -120 18 -155z m-1892 28 c30 -39 55 -74 55
-80 0 -13 -61 23 -70 42 -4 8 -21 38 -38 67 -42 72 -14 57 53 -29z m83 -12
c45 -49 117 -154 111 -161 -11 -11 -98 58 -104 83 -4 15 -20 48 -36 75 -36 59
-24 60 29 3z m3314 -23 c-3 -62 -47 -203 -63 -203 -6 0 7 112 17 145 11 33 45
125 48 125 1 0 0 -30 -2 -67z m-1462 -39 c0 -79 -10 -95 -27 -41 -11 36 4 130
19 121 4 -3 8 -39 8 -80z m49 -81 c1 -131 -7 -154 -30 -85 -16 47 -16 57 -3
93 7 23 14 62 15 88 1 93 18 8 18 -96z m-1738 25 c38 -45 95 -138 85 -138 -14
0 -96 65 -96 76 0 7 -18 48 -40 91 -43 84 -42 84 51 -29z m107 -48 c48 -56
121 -180 106 -180 -3 0 -22 12 -43 27 -28 20 -43 42 -61 92 -14 36 -40 86 -59
111 -66 88 -44 69 57 -50z m77 -7 c43 -49 91 -107 107 -131 30 -44 82 -152 72
-152 -2 0 -29 19 -59 41 -34 25 -55 49 -55 61 0 38 -69 168 -115 217 -26 28
-43 51 -37 51 6 0 45 -39 87 -87z m2852 -178 c-16 -38 -32 -72 -34 -75 -16
-15 7 184 28 249 l24 75 6 -89 c6 -84 4 -94 -24 -160z m-1239 55 c0 -58 -3
-118 -7 -135 -6 -28 -9 -24 -33 47 -26 77 -26 78 -8 115 9 21 21 61 25 88 8
47 9 48 16 20 3 -16 7 -77 7 -135z m-1417 -43 c57 -75 126 -203 116 -213 -2
-3 -27 14 -56 36 -36 29 -51 47 -51 65 0 33 -36 126 -66 170 -43 64 -7 28 57
-58z m141 -92 c33 -43 71 -101 85 -129 30 -58 55 -126 46 -126 -3 0 -32 23
-64 51 -41 35 -59 58 -59 74 0 48 -52 162 -101 223 -27 33 -49 65 -49 69 1 12
74 -71 142 -162z m1337 11 c1 -72 -18 -191 -29 -179 -4 4 -15 33 -24 64 -15
54 -15 59 3 100 11 24 23 69 27 99 l8 55 7 -40 c4 -22 8 -67 8 -99z m3181 124
c0 -5 -8 -10 -17 -10 -15 0 -16 2 -3 10 19 12 20 12 20 0z m-3119 -171 c10
-102 9 -130 -6 -213 -9 -53 -20 -98 -24 -101 -5 -2 -18 29 -30 70 -21 74 -21
75 -3 112 30 60 45 155 39 236 -9 116 10 31 24 -104z m1063 13 c3 -6 -5 -39
-19 -74 l-25 -63 3 110 c4 126 18 170 28 89 4 -29 9 -57 13 -62z m-2398 28
c99 -110 195 -275 218 -374 7 -27 4 -26 -57 28 -59 51 -65 60 -69 104 -8 74
-45 155 -104 233 -59 76 -53 81 12 9z m5074 50 c8 -5 11 -10 5 -10 -5 0 -17 5
-25 10 -8 5 -10 10 -5 10 6 0 17 -5 25 -10z m-4947 -91 c48 -44 107 -106 131
-137 100 -132 180 -298 201 -417 l6 -40 -49 48 c-48 47 -49 50 -55 120 -3 40
-13 94 -23 121 -29 85 -128 219 -217 297 -109 95 -103 89 -91 89 5 0 49 -36
97 -81z m81 -154 c29 -44 65 -102 78 -130 26 -51 64 -172 57 -180 -2 -2 -26
17 -52 41 -39 38 -47 51 -47 82 0 85 -45 185 -142 317 -30 40 -29 40 12 -5 22
-25 65 -81 94 -125z m1173 118 c-3 -10 -5 -4 -5 12 0 17 2 24 5 18 2 -7 2 -21
0 -30z m952 -101 c7 -13 5 -31 -7 -65 -9 -26 -20 -47 -24 -47 -10 0 -10 161
-1 215 l7 40 7 -62 c4 -34 12 -70 18 -81z m-942 -97 c-4 -125 -31 -257 -47
-238 -4 4 -15 36 -24 70 l-17 62 25 38 c24 38 55 152 57 215 2 28 2 29 6 8 3
-14 3 -83 0 -155z m889 -20 c13 -38 12 -46 -8 -105 -19 -57 -23 -62 -29 -40
-10 34 -11 186 -2 246 l7 49 9 -55 c5 -30 15 -73 23 -95z m-829 -120 c-5 -111
-32 -242 -56 -268 -4 -4 -15 24 -25 62 l-18 69 25 44 c39 66 57 143 58 242 l1
91 10 -60 c5 -33 7 -114 5 -180z m772 -41 c18 -40 18 -46 4 -96 -8 -29 -19
-57 -23 -61 -21 -23 -39 206 -23 298 7 39 8 38 15 -29 5 -38 17 -88 27 -112z
m-1665 23 c102 -143 192 -370 184 -466 l-3 -40 -56 67 -57 67 0 81 c0 44 -6
100 -12 124 -13 49 -71 168 -103 214 -12 16 -16 26 -9 22 6 -4 32 -35 56 -69z
m1594 -133 c5 -16 17 -44 25 -61 15 -28 15 -35 0 -79 -22 -68 -29 -72 -41 -22
-20 81 -24 147 -16 255 l8 108 7 -85 c4 -47 12 -99 17 -116z m-651 6 c-4 -110
-9 -150 -31 -217 -15 -46 -30 -83 -35 -83 -4 0 -15 34 -25 76 l-16 75 25 33
c35 45 65 138 73 221 9 106 15 47 9 -105z m2036 157 c-4 -7 -37 -39 -72 -72
-45 -41 -58 -50 -43 -28 20 28 109 113 119 113 2 0 0 -6 -4 -13z m-1460 -114
c-6 -87 14 -191 50 -253 l19 -35 -22 -74 c-25 -86 -30 -83 -55 33 -14 65 -17
106 -11 215 5 125 13 191 22 191 2 0 1 -35 -3 -77z m1276 -40 c-24 -50 -99
-141 -99 -120 0 17 112 177 124 177 1 0 -10 -26 -25 -57z m-1808 -227 c-10
-83 -56 -246 -70 -246 -4 0 -13 31 -22 69 -15 69 -15 70 8 100 40 51 74 158
81 256 l7 90 3 -89 c2 -49 -2 -130 -7 -180z m-611 143 c216 -102 387 -263 471
-443 38 -82 33 -97 -9 -23 -41 73 -161 174 -276 233 -50 26 -104 61 -120 78
-15 17 -23 23 -16 13 14 -19 10 -30 -6 -19 -5 4 -31 39 -56 77 -26 39 -59 81
-74 95 l-28 25 30 -40 c48 -64 86 -126 81 -132 -3 -2 -24 24 -48 59 -23 35
-56 80 -72 102 -30 38 -30 38 -6 31 13 -4 71 -29 129 -56z m670 -61 c20 -152
-6 -360 -62 -486 l-21 -47 -22 85 -22 85 24 31 c60 80 101 266 86 386 -3 23
-3 41 0 38 3 -3 11 -44 17 -92z m1621 43 c-12 -22 -21 -48 -21 -58 -1 -10 -25
-45 -56 -78 l-55 -60 26 58 c24 56 114 191 123 183 2 -2 -6 -22 -17 -45z
m-1187 -200 c9 -24 25 -59 37 -77 20 -34 20 -35 3 -104 -10 -39 -21 -70 -25
-70 -3 0 -14 28 -24 63 -14 46 -19 100 -21 212 -2 118 -1 136 6 85 5 -36 16
-85 24 -109z m-378 -9 c13 -94 13 -133 4 -230 -6 -64 -16 -135 -21 -157 -13
-53 -61 -175 -69 -175 -3 0 -16 39 -27 88 -21 85 -21 87 -3 107 34 37 81 153
92 227 9 65 6 201 -7 283 l-5 30 10 -30 c5 -16 17 -81 26 -143z m-2596 93 c0
-8 -54 18 -70 33 -8 8 4 5 28 -7 23 -12 42 -23 42 -26z m-320 25 c0 -5 -10
-10 -22 -9 -22 0 -22 1 -3 9 11 5 21 9 23 9 1 1 2 -3 2 -9z m406 -34 c69 -45
89 -51 63 -19 -22 27 41 -13 93 -59 l43 -38 -95 44 c-52 24 -104 46 -116 50
-23 7 -83 66 -68 66 6 0 42 -20 80 -44z m2839 -241 c10 -27 26 -62 36 -77 11
-14 19 -32 19 -40 0 -25 -34 -148 -42 -148 -4 0 -17 30 -29 68 -25 76 -38 308
-23 410 8 56 9 55 15 -53 3 -66 13 -130 24 -160z m-2612 156 c31 -30 57 -59
57 -63 0 -17 -57 22 -74 49 -10 15 -39 48 -64 72 -41 38 -42 40 -12 21 19 -13
61 -48 93 -79z m1505 90 c11 -7 82 -181 82 -201 0 -5 -16 -3 -35 3 -33 10 -35
13 -35 54 0 24 -9 68 -19 98 -19 54 -18 62 7 46z m-1973 -11 c16 -7 13 -9 -16
-9 -20 -1 -58 -8 -84 -16 -67 -20 -68 -12 -3 14 58 22 73 24 103 11z m566 -97
c50 -53 105 -123 95 -123 -3 0 -26 10 -51 22 -35 17 -51 33 -64 63 -10 22 -40
65 -67 95 l-49 54 45 -31 c25 -17 66 -53 91 -80z m1513 18 c36 -80 57 -143 51
-149 -10 -11 -24 14 -53 93 -16 44 -32 88 -37 98 -4 9 -3 17 3 17 5 0 21 -26
36 -59z m2071 3 c-8 -28 -26 -61 -40 -74 l-26 -25 11 30 c15 39 62 126 67 122
1 -2 -4 -26 -12 -53z m-4620 -39 c-47 -47 -103 -109 -125 -136 -22 -28 -40
-47 -40 -43 0 23 222 264 244 264 4 0 -32 -38 -79 -85z m603 66 c9 -5 -8 -10
-44 -14 -32 -3 -60 -4 -62 -2 -3 3 47 16 88 24 3 0 11 -3 18 -8z m2014 -64
c47 -81 78 -144 78 -157 0 -25 -39 12 -51 47 -6 21 -29 69 -50 106 -44 77 -44
78 -26 71 7 -2 29 -33 49 -67z m-2762 60 c0 -2 -10 -12 -22 -23 l-23 -19 19
23 c18 21 26 27 26 19z m2855 -79 c84 -62 178 -151 219 -206 44 -61 102 -178
110 -221 6 -32 3 -30 -32 25 -21 32 -65 84 -98 114 -33 30 -70 72 -83 93 -28
46 -38 49 -15 5 16 -30 16 -32 1 -19 -10 7 -31 41 -48 74 -29 58 -88 147 -96
147 -2 0 8 -19 22 -42 14 -24 39 -69 56 -101 27 -52 28 -57 9 -47 -11 6 -33
37 -50 69 -16 32 -43 82 -59 110 -17 29 -31 54 -31 57 0 8 32 -12 95 -58z
m-2042 45 c-13 -2 -35 -2 -50 0 -16 2 -5 4 22 4 28 0 40 -2 28 -4z m543 -127
c30 -37 54 -72 54 -76 0 -4 -24 5 -54 21 -48 26 -57 36 -71 79 -9 27 -21 52
-26 55 -5 4 -14 15 -20 27 -21 40 60 -34 117 -106z m-473 97 c-13 -2 -33 -2
-45 0 -13 2 -3 4 22 4 25 0 35 -2 23 -4z m-293 -18 c-14 -8 -29 -14 -35 -14
-5 0 1 6 15 14 14 8 30 14 35 14 6 0 -1 -6 -15 -14z m4076 -42 c-12 -44 -49
-113 -61 -113 -6 0 31 103 50 139 23 45 27 35 11 -26z m-3698 32 c-3 -3 -34
-7 -69 -9 -47 -3 -55 -2 -29 4 41 9 106 12 98 5z m2667 -260 c10 -27 29 -66
42 -85 12 -19 23 -40 23 -46 0 -32 -34 -154 -41 -147 -4 4 -20 44 -35 88 -21
65 -27 104 -32 211 -2 72 -1 157 4 190 l8 59 7 -110 c4 -64 14 -131 24 -160z
m-2202 182 c45 -56 99 -137 92 -137 -24 0 -85 49 -90 71 -3 15 -19 47 -35 72
-35 56 -14 52 33 -6z m1990 -177 c0 -173 -18 -283 -64 -378 l-32 -67 -22 85
-22 85 23 30 c72 96 111 258 100 410 -5 66 -4 67 6 25 6 -25 11 -110 11 -190z
m-780 195 c41 -17 47 -34 47 -133 0 -71 -1 -73 -22 -66 -13 3 -23 7 -24 8 0 0
-15 20 -32 43 -27 35 -31 45 -22 67 5 14 10 41 12 61 1 19 3 35 4 35 1 0 17
-7 37 -15z m1937 -36 c-5 -19 -10 -47 -12 -64 -3 -36 -34 -85 -53 -85 -17 0
-14 9 33 113 37 82 47 93 32 36z m-2947 -154 c15 -26 26 -49 25 -50 -2 -2 -26
12 -54 30 -37 24 -53 41 -57 63 -3 16 -20 54 -37 83 l-31 54 64 -66 c35 -36
75 -87 90 -114z m1141 82 c19 -68 26 -137 15 -137 -4 0 -24 7 -43 16 -30 15
-33 20 -26 44 4 15 7 55 6 88 -3 56 -1 60 15 51 11 -5 25 -33 33 -62z m-3039
36 c-5 -10 -28 -67 -52 -128 -31 -77 -43 -98 -39 -71 5 35 83 216 94 216 2 0
1 -8 -3 -17z m404 -30 c-40 -47 -42 -49 -34 -33 10 19 47 60 53 60 3 0 -5 -12
-19 -27z m1618 -161 c19 -35 34 -65 32 -67 -9 -8 -99 66 -99 81 0 19 -35 98
-62 139 -11 17 6 3 37 -30 31 -33 73 -88 92 -123z m493 163 c209 -34 332 -99
392 -209 9 -17 7 -17 -20 3 -122 87 -304 116 -561 91 -92 -9 -96 -8 -140 18
-80 46 -125 81 -110 86 74 26 311 31 439 11z m589 5 c13 -6 26 -39 41 -100 12
-50 20 -93 18 -95 -2 -3 -18 1 -35 7 -30 11 -31 14 -36 87 -2 42 -8 84 -12 94
-8 19 -2 21 24 7z m2898 4 c-3 -3 -12 -4 -19 -1 -8 3 -5 6 6 6 11 1 17 -2 13
-5z m-1257 -38 c-5 -15 -10 -38 -10 -51 0 -19 -26 -43 -35 -33 -4 5 48 119 52
115 2 -2 -1 -16 -7 -31z m-2707 -60 c65 -75 156 -220 145 -232 -3 -2 -21 9
-42 24 -28 21 -45 46 -70 110 -19 47 -52 104 -75 132 -70 83 -37 56 42 -34z
m1807 -176 c12 -36 35 -82 51 -102 33 -42 33 -40 18 -127 l-12 -65 -22 45
c-46 90 -66 194 -70 354 -4 138 -3 142 5 55 5 -53 18 -125 30 -160z m-1664 87
c40 -48 80 -100 88 -116 15 -27 14 -29 -7 -35 -35 -9 -47 -7 -47 10 0 32 -71
167 -117 222 -26 31 -35 46 -19 32 15 -14 61 -64 102 -113z m1053 39 c10 -33
22 -74 26 -90 6 -29 6 -29 -17 -14 -22 14 -41 66 -63 170 -7 33 -7 33 13 14
12 -10 30 -46 41 -80z m2601 86 c0 -10 -112 -62 -132 -62 -19 0 30 31 81 51
55 22 51 21 51 11z m-2113 -49 c-3 -10 -5 -2 -5 17 0 19 2 27 5 18 2 -10 2
-26 0 -35z m928 -22 c-21 -43 -29 -39 -8 4 9 19 18 33 21 31 2 -2 -4 -18 -13
-35z m-878 -18 c-3 -10 -5 -2 -5 17 0 19 2 27 5 18 2 -10 2 -26 0 -35z m707
-27 c-94 -69 -154 -126 -217 -206 l-28 -35 22 45 c28 58 90 149 118 174 20 18
176 94 195 96 5 0 -36 -33 -90 -74z m-1524 37 c0 -13 -3 -13 -15 -3 -8 7 -15
16 -15 21 0 5 7 6 15 3 8 -4 15 -13 15 -21z m1812 5 c-7 -7 -12 -8 -12 -2 0
14 12 26 19 19 2 -3 -1 -11 -7 -17z m-1452 -89 c35 -92 37 -109 10 -84 -11 10
-20 28 -20 39 0 12 -12 48 -25 81 -29 71 -29 71 -10 55 8 -6 28 -47 45 -91z
m1273 66 c-9 -19 -18 -33 -21 -31 -4 5 26 66 33 66 3 0 -3 -16 -12 -35z
m-2050 15 c176 -26 200 -35 294 -118 47 -42 88 -82 90 -88 7 -22 -138 26 -268
90 -74 36 -147 68 -164 72 -16 3 29 -23 100 -59 l130 -66 -53 0 c-48 -1 -147
17 -212 38 -14 4 -65 34 -115 67 l-90 59 45 6 c73 10 170 9 243 -1z m2187 -19
c0 -23 -5 -30 -25 -33 -33 -7 -34 24 -3 46 29 20 28 21 28 -13z m-1695 2 c31
-15 35 -21 34 -52 -1 -20 -4 -46 -8 -59 -6 -22 -10 -18 -49 37 -61 87 -54 111
23 74z m701 -188 c-2 -113 -6 -208 -9 -211 -11 -12 -19 91 -14 170 13 174 20
246 23 246 1 0 1 -92 0 -205z m1924 185 c-23 -15 -122 -51 -127 -47 -2 3 24
16 59 30 65 27 94 34 68 17z m-1161 -47 c-24 -27 -69 -68 -99 -93 l-55 -45 40
49 c42 52 134 136 149 136 5 0 -11 -21 -35 -47z m-1135 -36 c14 -32 21 -55 16
-52 -8 5 -60 111 -60 123 0 15 21 -19 44 -71z m1501 48 c-72 -25 -115 -31
-115 -17 0 9 123 40 160 40 14 0 -6 -10 -45 -23z m-1086 -40 c-1 -29 -1 -29
-9 -5 -4 14 -8 34 -9 45 -1 16 1 17 9 5 5 -8 9 -28 9 -45z m861 41 c0 -8 -7
-16 -15 -20 -17 -6 -18 -4 -9 18 8 20 24 21 24 2z m-1458 -80 c3 -22 3 -58 0
-78 l-4 -37 -48 24 c-26 13 -50 31 -54 41 -3 9 1 36 9 60 8 25 15 52 15 60 0
13 7 11 39 -7 33 -18 39 -27 43 -63z m-334 50 c15 -8 56 -45 92 -83 100 -103
114 -126 30 -48 -41 39 -95 87 -119 108 -47 39 -48 46 -3 23z m1892 10 c0 -2
-9 -6 -20 -9 -11 -3 -18 -1 -14 4 5 9 34 13 34 5z m-2449 -23 c13 -16 12 -17
-3 -4 -10 7 -18 15 -18 17 0 8 8 3 21 -13z m1995 -35 c-26 -29 -63 -86 -84
-125 -35 -69 -62 -100 -43 -50 36 94 67 146 108 184 63 59 74 54 19 -9z m266
30 c-7 -7 -12 -8 -12 -2 0 14 12 26 19 19 2 -3 -1 -11 -7 -17z m973 6 c-65
-50 -260 -184 -267 -184 -17 0 -7 16 39 62 35 36 55 48 78 49 25 0 27 2 10 8
-18 7 -17 10 14 25 24 13 36 15 41 6 5 -8 11 -6 21 6 12 15 64 43 79 43 3 0
-4 -7 -15 -15z m-3175 -85 c0 -21 -17 -6 -33 29 l-17 37 25 -28 c14 -15 25
-32 25 -38z m1114 -54 c19 -38 37 -86 40 -105 4 -25 -10 -4 -45 70 -28 58 -55
116 -60 130 l-9 25 20 -25 c10 -14 35 -56 54 -95z m-1064 80 c13 -14 19 -25
13 -25 -6 0 -18 11 -27 25 -9 14 -15 25 -13 25 2 0 14 -11 27 -25z m858 2 c12
-13 26 -47 32 -76 16 -84 16 -84 -36 -58 -44 21 -46 23 -40 57 3 19 6 50 6 68
0 38 9 40 38 9z m-293 -5 c-3 -3 -11 0 -18 7 -9 10 -8 11 6 5 10 -3 15 -9 12
-12z m-430 -20 c-3 -3 -11 0 -18 7 -9 10 -8 11 6 5 10 -3 15 -9 12 -12z m2705
14 c0 -2 -21 -16 -46 -31 l-46 -27 -51 23 c-45 22 -48 24 -26 30 26 8 169 12
169 5z m-2239 -33 c13 -16 12 -17 -3 -4 -10 7 -18 15 -18 17 0 8 8 3 21 -13z
m2049 -8 c68 -22 78 -30 51 -45 -18 -9 -30 -6 -76 22 -49 30 -75 57 -42 46 6
-3 37 -13 67 -23z m-900 -52 c-22 -36 -42 -78 -45 -94 -3 -15 -15 -35 -26 -45
-19 -17 -19 -17 0 38 24 70 48 117 74 146 37 41 36 23 -3 -45z m-740 36 c0 -6
-4 -7 -10 -4 -5 3 -10 11 -10 16 0 6 5 7 10 4 6 -3 10 -11 10 -16z m-1111 2
c15 -10 8 -15 -29 -24 -19 -5 -29 -1 -38 13 -11 18 -9 20 20 20 18 0 39 -4 47
-9z m74 2 c-7 -2 -19 -2 -25 0 -7 3 -2 5 12 5 14 0 19 -2 13 -5z m518 -91 c49
-46 88 -87 85 -89 -2 -2 -29 23 -60 55 -31 33 -84 74 -116 91 -33 18 -60 33
-60 35 0 1 14 1 31 -2 21 -3 57 -30 120 -90z m918 -37 c1 -102 -20 -58 -25 54
-4 82 -4 85 10 51 8 -19 15 -66 15 -105z m-433 55 c3 -25 8 -54 11 -64 5 -19
4 -19 -23 1 -25 18 -29 28 -30 76 -2 52 -1 55 17 44 12 -7 21 -28 25 -57z
m1252 63 c-10 -2 -28 -2 -40 0 -13 2 -5 4 17 4 22 1 32 -1 23 -4z m607 -22
c-3 -6 -11 -11 -17 -11 -6 0 -6 6 2 15 14 17 26 13 15 -4z m-2055 -36 c0 -20
-14 -19 -32 3 -32 37 -32 44 1 28 17 -9 31 -23 31 -31z m1334 24 c-31 -12 -40
-9 -20 6 10 8 24 11 29 8 6 -4 2 -10 -9 -14z m-1567 -6 c38 -16 78 -61 78 -88
0 -5 10 -18 23 -28 23 -19 29 -37 12 -37 -16 0 -51 44 -46 57 3 7 0 13 -7 13
-13 1 -123 100 -110 100 4 0 27 -8 50 -17z m1658 7 c13 -6 15 -9 5 -9 -8 0
-22 4 -30 9 -18 12 -2 12 25 0z m598 -17 c-7 -2 -19 -2 -25 0 -7 3 -2 5 12 5
14 0 19 -2 13 -5z m-1910 -76 c-2 -4 -3 -25 -3 -47 0 -22 -4 -40 -9 -40 -4 0
-21 18 -35 41 -15 22 -30 38 -33 36 -3 -3 9 -26 27 -51 17 -25 27 -46 23 -46
-4 0 -25 28 -46 62 -21 34 -31 56 -23 49 18 -15 22 -1 5 16 -6 6 -8 21 -4 32
6 21 8 21 53 -12 26 -18 46 -36 45 -40z m755 -19 c-50 -115 -80 -151 -43 -53
23 62 68 145 79 145 2 0 -14 -42 -36 -92z m482 82 c11 -7 5 -10 -23 -10 -23 0
-36 4 -32 10 8 13 35 13 55 0z m680 -30 c-29 -23 -41 -25 -58 -8 -21 21 -13
28 36 28 l47 0 -25 -20z m-2613 4 c-3 -3 -12 -4 -19 -1 -8 3 -5 6 6 6 11 1 17
-2 13 -5z m846 -21 c8 -16 17 -46 21 -68 7 -40 7 -40 -12 -20 -18 18 -41 115
-28 115 3 0 12 -12 19 -27z m979 -5 c-6 -6 -15 -8 -19 -4 -4 4 -1 11 7 16 19
12 27 3 12 -12z m98 6 c0 -2 -11 -4 -25 -4 -14 0 -25 4 -25 9 0 4 11 6 25 3
14 -2 25 -6 25 -8z m-1990 -4 c-8 -5 -19 -10 -25 -10 -5 0 -3 5 5 10 8 5 20
10 25 10 6 0 3 -5 -5 -10z m2642 -29 c46 -38 51 -51 19 -51 -16 1 -89 90 -74
90 5 0 29 -17 55 -39z m-2287 9 c16 -17 16 -20 3 -15 -9 4 -19 13 -22 21 -7
19 -2 18 19 -6z m215 -1 c17 -30 6 -34 -14 -4 -9 14 -12 25 -7 25 6 0 15 -9
21 -21z m756 -95 c3 -56 1 -82 -4 -69 -13 27 -21 178 -10 167 5 -5 11 -49 14
-98z m-1651 86 c-3 -5 -12 -10 -18 -10 -7 0 -6 4 3 10 19 12 23 12 15 0z
m1448 -123 c-3 -70 -8 -126 -10 -124 -2 2 -12 44 -22 92 l-20 89 25 29 c13 15
24 33 24 39 0 6 2 9 4 7 2 -2 2 -61 -1 -132z m534 86 c-7 -23 -16 -45 -20 -49
-4 -4 0 15 8 42 8 27 15 51 15 53 0 2 2 2 5 0 2 -3 -1 -23 -8 -46z m318 27
c-3 -5 -15 -10 -26 -10 -10 0 -19 5 -19 10 0 6 12 10 26 10 14 0 23 -4 19 -10z
m-1135 -30 c24 -23 31 -36 26 -53 -3 -12 -6 -32 -6 -44 0 -29 -12 -29 -41 1
-13 13 -29 22 -36 19 -7 -3 -13 0 -13 7 0 6 4 9 9 5 6 -3 9 5 9 17 -3 44 2 78
11 78 5 0 23 -14 41 -30z m1220 20 c0 -5 -4 -10 -10 -10 -5 0 -10 5 -10 10 0
6 5 10 10 10 6 0 10 -4 10 -10z m-900 -63 c5 -30 6 -66 2 -79 -6 -22 -7 -22
-13 7 -8 37 -11 140 -4 133 3 -3 10 -30 15 -61z m650 53 c0 -5 -5 -10 -11 -10
-5 0 -7 5 -4 10 3 6 8 10 11 10 2 0 4 -4 4 -10z m80 0 c-8 -5 -22 -10 -30 -10
-13 0 -13 1 0 10 8 5 22 10 30 10 13 0 13 -1 0 -10z m-527 -36 c7 1 9 1 5 -1
-5 -3 -8 -23 -8 -45 0 -58 -7 -44 -13 27 -3 33 -3 50 -1 38 3 -12 11 -21 17
-19z m236 -30 c-11 -60 -29 -96 -29 -58 0 26 30 127 36 122 2 -3 -1 -31 -7
-64z m572 55 c54 -19 57 -29 3 -13 -65 19 -72 22 -53 23 9 1 31 -4 50 -10z
m-2041 -9 c-20 -13 -33 -13 -25 0 3 6 14 10 23 10 15 0 15 -2 2 -10z m485 -22
l16 -33 -21 24 c-11 13 -20 27 -20 32 0 18 10 8 25 -23z m-275 -3 c10 -12 10
-15 -3 -15 -8 0 -20 7 -27 15 -10 12 -10 15 3 15 8 0 20 -7 27 -15z m915 -15
c13 -25 14 -41 5 -97 -6 -37 -13 -69 -15 -71 -2 -2 -11 20 -20 50 -13 44 -14
61 -3 101 6 26 13 47 15 47 1 0 9 -13 18 -30z m-1196 16 c-2 -2 -15 -9 -29
-15 -24 -11 -24 -11 -6 3 16 13 49 24 35 12z m166 -6 c3 -5 1 -10 -4 -10 -6 0
-11 5 -11 10 0 6 2 10 4 10 3 0 8 -4 11 -10z m285 -37 c49 -77 33 -85 -21 -11
-31 43 -36 58 -19 58 6 0 24 -21 40 -47z m1395 38 c-6 -4 -22 -11 -37 -15 -21
-5 -28 -3 -28 9 0 11 11 15 37 15 22 0 33 -4 28 -9z m205 -1 c20 -6 14 -8 -28
-9 -33 -1 -51 3 -47 9 7 12 39 12 75 0z m340 0 c0 -5 -2 -10 -4 -10 -3 0 -8 5
-11 10 -3 6 -1 10 4 10 6 0 11 -4 11 -10z m290 -38 c-49 -5 -84 33 -37 40 12
2 32 -5 45 -16 l24 -21 -32 -3z m-2580 29 c0 -9 -41 -23 -49 -16 -3 4 28 20
47 24 1 1 2 -3 2 -8z m1640 -5 c0 -14 -29 -31 -38 -21 -6 6 18 35 29 35 5 0 9
-6 9 -14z m-267 -53 c-5 -51 -28 -101 -40 -89 -7 7 18 120 29 134 16 19 17 16
11 -45z m-967 39 c13 -9 46 -102 35 -102 -19 0 -39 29 -49 68 -10 42 -7 49 14
34z m387 -69 c9 -54 -3 -67 -36 -40 -25 20 -27 26 -21 70 l7 48 22 -21 c13
-12 25 -37 28 -57z m1288 63 c-7 -8 -21 -12 -33 -8 -21 5 -21 6 -2 13 33 13
48 11 35 -5z m223 -12 c15 -14 27 -27 25 -29 -2 -2 -19 10 -37 26 -18 16 -29
29 -25 29 5 0 21 -12 37 -26z m-2384 7 c0 -8 -53 -32 -69 -31 -5 1 59 38 67
40 1 0 2 -4 2 -9z m235 -1 c3 -5 1 -10 -4 -10 -6 0 -11 5 -11 10 0 6 2 10 4
10 3 0 8 -4 11 -10z m65 -5 c7 -8 8 -15 2 -15 -5 0 -15 7 -22 15 -7 8 -8 15
-2 15 5 0 15 -7 22 -15z m1635 -4 c-6 -5 -20 -12 -32 -16 -18 -5 -22 -3 -17 9
3 9 18 16 32 16 16 0 22 -4 17 -9z m-1830 -10 c-6 -4 -23 -11 -40 -14 l-30 -6
30 14 c35 16 54 19 40 6z m1691 -6 c-22 -16 -46 -20 -46 -7 0 15 13 22 39 22
25 -1 25 -1 7 -15z m322 -1 c2 -1 -5 -7 -15 -12 -11 -5 -36 -5 -63 1 -37 8
-41 11 -25 17 17 7 93 3 103 -6z m148 5 c3 -6 2 -15 -2 -19 -12 -12 -38 5 -30
19 9 14 23 14 32 0z m-1677 -52 c13 -26 21 -50 18 -53 -13 -14 -45 23 -54 63
-14 58 4 53 36 -10z m116 21 l16 -33 -20 25 c-20 24 -26 40 -16 40 2 0 12 -15
20 -32z m1015 17 c0 -16 -46 -43 -55 -33 -11 11 7 37 28 41 12 2 23 5 25 6 1
0 2 -6 2 -14z m-1701 -9 c-2 -2 -15 -9 -29 -15 -24 -11 -24 -11 -6 3 16 13 49
24 35 12z m251 -17 c0 -6 -4 -7 -10 -4 -5 3 -10 11 -10 16 0 6 5 7 10 4 6 -3
10 -11 10 -16z m2388 -26 c33 -50 34 -61 7 -46 -18 11 -59 93 -46 93 5 0 22
-21 39 -47z m-2453 27 c3 -5 -3 -10 -14 -10 -12 0 -21 5 -21 10 0 6 6 10 14
10 8 0 18 -4 21 -10z m145 -5 c10 -12 9 -15 -8 -15 -11 0 -22 7 -26 15 -3 9 0
15 8 15 7 0 19 -7 26 -15z m1901 5 c6 0 7 -4 4 -10 -7 -12 -55 -13 -55 -2 0
15 13 23 28 17 7 -3 18 -5 23 -5z m-2121 -10 c0 -8 -60 -30 -82 -30 -21 0 -4
18 25 28 42 13 57 14 57 2z m1098 -83 c-26 -86 -40 -70 -19 24 12 57 17 67 27
57 11 -11 9 -26 -8 -81z m814 78 c-1 -6 -36 -10 -77 -10 -64 0 -72 2 -58 13
21 15 139 13 135 -3z m-1274 -31 c-4 -3 -12 5 -18 18 -12 22 -12 22 6 6 10
-10 15 -20 12 -24z m842 6 c-6 -12 -14 -19 -17 -17 -2 3 1 15 7 27 6 12 14 19
17 17 2 -3 -1 -15 -7 -27z m-1770 15 c0 -2 -10 -10 -22 -16 -21 -11 -22 -11
-9 4 13 16 31 23 31 12z m1527 -47 c-11 -58 -27 -87 -27 -47 0 33 19 99 29 99
4 0 4 -24 -2 -52z m-1687 38 c0 -2 -8 -10 -17 -17 -16 -13 -17 -12 -4 4 13 16
21 21 21 13z m840 -12 c0 -2 -7 -4 -15 -4 -8 0 -15 4 -15 10 0 5 7 7 15 4 8
-4 15 -8 15 -10z m155 -52 c-9 -9 -23 11 -30 43 l-7 30 22 -34 c11 -18 19 -36
15 -39z m449 12 c25 -53 25 -56 9 -96 -19 -47 -25 -40 -42 50 -10 54 -8 102 4
102 2 0 15 -25 29 -56z m377 29 c-12 -20 -14 -14 -5 12 4 9 9 14 11 11 3 -2 0
-13 -6 -23z m204 18 c-6 -5 -21 -11 -35 -15 -21 -5 -20 -3 5 9 35 17 42 18 30
6z m735 -12 c0 -13 -13 -11 -35 5 -18 13 -18 14 8 9 15 -3 27 -9 27 -14z
m-2949 -35 c-6 -22 -20 -45 -31 -52 -11 -7 -20 -9 -20 -6 0 10 54 103 58 99 2
-1 -1 -20 -7 -41z m1444 -14 c7 -40 6 -43 -9 -31 -10 8 -16 29 -16 54 0 52 15
38 25 -23z m1272 54 c-3 -3 -12 -4 -19 -1 -8 3 -5 6 6 6 11 1 17 -2 13 -5z
m172 -3 c7 -5 9 -11 5 -14 -10 -5 -54 9 -54 18 0 8 34 6 49 -4z m-2931 -9 c-1
-4 -11 -30 -22 -57 -13 -35 -30 -58 -58 -78 -22 -16 -42 -27 -44 -25 -4 4 71
125 94 151 15 17 37 24 30 9z m792 -7 c0 -10 -10 -15 -30 -15 -20 0 -30 5 -30
15 0 10 10 15 30 15 20 0 30 -5 30 -15z m68 -3 c2 -7 -3 -12 -12 -12 -9 0 -16
7 -16 16 0 17 22 14 28 -4z m-155 -6 c4 -10 -4 -15 -28 -18 -18 -2 -38 -2 -44
0 -19 6 -12 20 12 25 43 8 55 7 60 -7z m248 -8 c10 -18 9 -20 -6 -15 -9 4 -20
7 -25 7 -4 0 -10 7 -14 15 -9 24 32 18 45 -7z m445 -29 c8 -16 14 -36 14 -46
0 -10 -9 -1 -21 22 -12 22 -25 44 -30 50 -5 5 -9 13 -9 18 0 15 30 -14 46 -44z
m1019 21 c-51 -30 -75 -37 -75 -22 0 16 35 40 65 45 59 8 59 6 10 -23z m253 5
c-6 -14 -15 -25 -20 -25 -9 0 -4 14 15 38 15 19 18 14 5 -13z m62 16 c0 -5 -7
-14 -15 -21 -16 -14 -18 -10 -9 14 6 17 24 22 24 7z m160 -1 c0 -5 -6 -10 -14
-10 -8 0 -18 5 -21 10 -3 6 3 10 14 10 12 0 21 -4 21 -10z m-740 -20 c-24 -15
-37 -11 -16 5 11 8 22 12 25 9 3 -3 -1 -9 -9 -14z m-1870 -20 c-46 -38 -65
-38 -22 0 18 17 38 30 44 30 7 0 -3 -13 -22 -30z m83 15 c-11 -8 -34 -19 -50
-25 l-28 -10 30 25 c17 14 39 25 50 25 19 0 19 -1 -2 -15z m93 0 c-11 -8 -34
-15 -50 -15 l-31 1 25 14 c14 8 36 14 50 14 24 0 24 0 6 -14z m904 -25 c11
-23 25 -53 31 -68 9 -24 8 -25 -5 -12 -14 14 -58 120 -50 120 2 0 13 -18 24
-40z m619 -22 c-12 -24 -24 -38 -26 -31 -2 6 6 31 18 55 12 24 24 38 26 31 2
-6 -6 -31 -18 -55z m866 52 c-3 -5 -11 -10 -16 -10 -6 0 -7 5 -4 10 3 6 11 10
16 10 6 0 7 -4 4 -10z m-2654 -46 c-11 -15 -21 -23 -21 -18 0 14 31 56 37 50
3 -3 -4 -17 -16 -32z m337 10 c-2 -1 -16 0 -33 3 -25 5 -27 7 -10 13 17 6 52
-7 43 -16z m493 9 c13 -16 12 -17 -3 -4 -10 7 -18 15 -18 17 0 8 8 3 21 -13z
m614 -152 c3 -5 1 -12 -4 -15 -10 -6 -26 56 -35 139 -4 36 0 26 14 -33 10 -45
22 -86 25 -91z m625 160 c0 -12 -47 -61 -59 -61 -23 0 -5 44 24 56 37 16 35
16 35 5z m759 -22 c6 -18 11 -36 11 -40 0 -10 -118 -10 -225 0 l-70 6 47 18
c26 10 58 16 70 13 13 -3 16 -3 8 1 -20 9 52 31 107 32 37 1 42 -2 52 -30z
m-1861 4 c13 -12 22 -35 25 -66 2 -26 3 -46 0 -44 -24 25 -81 112 -77 118 8
14 30 10 52 -8z m-344 -9 c11 -30 6 -34 -42 -34 -36 0 -54 5 -67 20 -16 18
-16 20 -2 20 10 0 17 -8 18 -17 0 -14 2 -13 9 5 7 17 17 22 44 22 22 0 36 -6
40 -16z m87 -12 c8 -21 6 -23 -18 -20 -16 2 -29 11 -34 26 -8 21 -6 23 18 20
16 -2 29 -11 34 -26z m885 -18 c-4 -20 -10 -34 -12 -31 -3 3 -2 21 2 41 3 21
9 35 11 32 3 -3 2 -21 -1 -42z m868 37 c7 -11 -30 -44 -44 -39 -6 2 -5 11 5
26 17 23 30 28 39 13z m-1670 -23 c21 -29 20 -39 -1 -31 -19 6 -43 32 -43 45
0 17 29 7 44 -14z m1016 -23 c-15 -39 -23 -25 -8 16 6 18 13 29 15 23 2 -6 -1
-24 -7 -39z m440 21 c-14 -14 -150 -68 -150 -60 0 10 84 57 112 64 49 12 54
11 38 -4z m-1984 -5 c-3 -5 -17 -12 -31 -15 -14 -4 -49 -17 -78 -30 -28 -13
-83 -38 -121 -55 -72 -33 -88 -33 -68 -1 10 16 10 20 0 20 -15 1 38 50 53 50
6 0 -3 -11 -18 -25 -16 -14 -22 -25 -14 -25 11 0 11 -3 0 -17 -12 -15 -9 -14
16 2 83 54 192 104 228 105 21 0 36 -4 33 -9z m804 -31 c10 -19 14 -90 5 -90
-4 0 -20 7 -37 16 -28 14 -30 19 -24 52 3 21 6 43 6 50 0 18 36 -2 50 -28z
m904 24 c8 -20 -2 -33 -45 -58 l-32 -19 6 24 c4 13 7 29 7 35 0 10 34 31 51
33 4 1 10 -6 13 -15z m399 1 c-3 -9 -8 -14 -10 -11 -3 3 -2 9 2 15 9 16 15 13
8 -4z m655 -28 c8 -29 8 -37 -1 -34 -12 4 -28 63 -19 72 7 7 9 5 20 -38z
m-3206 -34 c-12 -22 -72 -58 -72 -44 0 28 34 90 53 98 19 9 22 7 25 -13 2 -13
-1 -31 -6 -41z m248 26 c-34 -22 -64 -38 -67 -35 -5 4 72 59 97 69 37 14 28 4
-30 -34z m336 26 c23 -17 22 -18 -92 -19 l-92 -1 42 16 c52 21 117 23 142 4z
m477 -15 c10 -16 14 -30 8 -30 -10 0 -41 39 -41 52 0 17 17 6 33 -22z m386 16
c9 -11 9 -16 0 -22 -8 -4 -9 -3 -5 4 4 7 2 12 -3 12 -6 0 -11 5 -11 10 0 14 5
13 19 -4z m253 -75 c-14 -57 -17 -62 -26 -42 -7 17 -4 33 13 68 12 25 24 44
25 42 2 -2 -3 -33 -12 -68z m192 27 c-9 -18 -19 -28 -21 -21 -5 13 27 67 34
59 3 -2 -3 -19 -13 -38z m486 22 c0 -5 -8 -10 -17 -10 -15 0 -16 2 -3 10 19
12 20 12 20 0z m359 5 c-3 -2 -23 -11 -45 -20 l-39 -16 24 21 c19 16 75 31 60
15z m-1919 -15 c0 -5 -11 -10 -25 -10 -14 0 -25 5 -25 10 0 6 11 10 25 10 14
0 25 -4 25 -10z m70 0 c12 -8 9 -10 -12 -10 -16 0 -28 5 -28 10 0 13 20 13 40
0z m554 -30 l17 -35 -21 24 c-11 13 -20 30 -20 39 0 19 3 15 24 -28z m30 32
c3 -5 -1 -9 -9 -9 -8 0 -12 4 -9 9 3 4 7 8 9 8 2 0 6 -4 9 -8z m262 -9 c-2
-10 -10 -44 -16 -76 -7 -32 -14 -56 -17 -54 -5 5 15 126 23 139 9 14 15 8 10
-9z m19 -60 c-10 -40 -17 -20 -9 23 5 24 9 32 12 21 2 -10 1 -30 -3 -44z m150
19 c-15 -16 -16 -15 -4 12 7 15 15 23 17 16 3 -7 -3 -19 -13 -28z m625 24 c0
-16 -50 -79 -57 -72 -2 2 5 22 17 45 20 41 40 54 40 27z m503 0 c3 -7 9 -35
13 -61 7 -47 6 -48 -17 -43 -112 25 -212 39 -314 44 -118 7 -119 7 -85 22 83
36 166 51 281 51 90 1 118 -2 122 -13z m52 -76 c5 -38 4 -52 -3 -45 -6 6 -13
39 -17 75 -7 77 9 54 20 -30z m-2470 71 c-6 -5 -19 -11 -30 -14 -11 -3 9 -2
45 0 46 4 62 2 55 -5 -5 -6 -50 -14 -100 -17 -123 -7 -221 -36 -344 -101 -58
-30 -106 -54 -107 -54 -2 0 -1 24 2 53 2 31 10 57 20 64 15 11 230 74 249 72
6 0 -12 -11 -40 -25 -53 -25 -45 -24 75 12 74 23 193 33 175 15z m863 -16 c-3
-3 -9 2 -12 12 -6 14 -5 15 5 6 7 -7 10 -15 7 -18z m688 9 c-3 -9 -6 -17 -6
-20 0 -2 -18 -13 -40 -24 -33 -17 -40 -18 -40 -6 0 15 65 66 83 66 5 0 6 -7 3
-16z m-1246 -4 c0 -13 -50 -13 -70 0 -11 7 -4 10 28 10 23 0 42 -4 42 -10z
m112 -18 c11 -13 10 -15 -12 -9 -14 4 -33 7 -42 7 -10 0 -18 6 -18 13 0 18 55
10 72 -11z m296 -17 c28 -57 27 -59 -2 -40 -16 10 -25 28 -28 50 -5 47 4 44
30 -10z m1118 10 c-10 -31 -32 -52 -43 -41 -5 5 39 76 48 76 3 0 1 -16 -5 -35z
m798 -51 c10 -41 15 -78 12 -81 -3 -4 -17 -1 -31 5 -23 11 -25 17 -25 82 0 97
21 94 44 -6z m-1274 56 c0 -5 -5 -10 -11 -10 -5 0 -7 5 -4 10 3 6 8 10 11 10
2 0 4 -4 4 -10z m-845 -30 c18 -34 5 -40 -25 -10 -24 24 -26 40 -5 40 8 0 21
-13 30 -30z m-390 10 c8 -13 -5 -13 -25 0 -13 8 -13 10 2 10 9 0 20 -4 23 -10z
m814 -70 c0 -8 -8 5 -19 29 -11 24 -20 46 -20 50 1 12 39 -64 39 -79z m-612
44 c2 -7 3 -20 1 -29 -2 -13 -10 -9 -36 18 l-33 34 31 -5 c18 -2 34 -10 37
-18z m736 -83 c-13 -79 -23 -85 -19 -11 3 59 2 70 -6 50 -11 -25 -11 -25 -19
10 -14 58 -1 71 26 26 18 -29 22 -47 18 -75z m562 99 c-3 -5 -11 -10 -16 -10
-6 0 -7 5 -4 10 3 6 11 10 16 10 6 0 7 -4 4 -10z m410 -10 c-3 -5 -23 -9 -43
-9 l-37 2 40 7 c22 4 41 8 43 9 2 0 0 -3 -3 -9z m-1925 -8 c46 -7 99 -36 87
-48 -4 -4 -37 -2 -75 5 -51 9 -90 9 -157 1 -115 -14 -198 -41 -422 -137 -9 -3
-13 4 -13 21 0 32 51 63 165 101 169 57 296 74 415 57z m301 -2 c28 -8 38 -17
42 -38 3 -15 5 -28 4 -28 -1 -1 -27 2 -58 8 -54 9 -55 10 -51 39 5 32 10 34
63 19z m935 -26 c-10 -40 -26 -77 -31 -72 -10 9 17 108 27 102 5 -3 7 -17 4
-30z m86 14 c-7 -7 -12 -8 -12 -2 0 14 12 26 19 19 2 -3 -1 -11 -7 -17z m-772
-37 c-1 -13 -3 -13 -15 3 -19 26 -19 42 0 26 8 -7 15 -20 15 -29z m1748 13
l32 -6 0 -74 0 -73 -47 15 c-220 68 -382 82 -509 43 -38 -12 -75 -26 -82 -31
-26 -22 -21 0 7 26 21 20 51 32 117 47 l89 19 -65 -4 c-75 -6 -61 3 55 35 59
16 93 18 220 14 83 -2 165 -7 183 -11z m-1847 -45 c15 -29 7 -32 -35 -13 -26
13 -36 24 -36 41 0 23 1 23 30 8 16 -8 34 -25 41 -36z m1039 36 c-7 -8 -17
-15 -22 -15 -6 0 -5 7 2 15 7 8 17 15 22 15 6 0 5 -7 -2 -15z m-2134 -103
c-14 -13 -17 11 -10 60 l9 53 3 -54 c2 -29 1 -56 -2 -59z m2028 93 c-4 -8 -8
-15 -10 -15 -2 0 -4 7 -4 15 0 8 4 15 10 15 5 0 7 -7 4 -15z m-775 -21 c24
-20 31 -34 31 -62 0 -66 -14 -66 -52 1 -48 84 -39 111 21 61z m175 -21 c4 -21
9 -51 12 -68 5 -27 4 -28 -9 -15 -18 17 -36 137 -19 127 5 -4 13 -24 16 -44z
m1598 1 c4 -21 7 -55 7 -76 1 -31 -2 -35 -19 -31 -18 5 -20 14 -20 80 0 55 3
74 12 71 7 -3 16 -22 20 -44z m-718 15 c-12 -13 -20 -16 -22 -9 -3 7 2 16 9
21 25 16 32 9 13 -12z m-1557 -16 c44 -10 79 -24 90 -36 20 -22 23 -22 -100 2
-74 15 -218 0 -315 -34 -112 -38 -224 -85 -281 -116 -29 -17 -54 -29 -56 -27
-2 2 -8 27 -13 57 l-10 53 56 25 c109 48 204 74 286 79 44 3 108 8 141 13 67
9 99 7 202 -16z m870 5 c-3 -8 -6 -5 -6 6 -1 11 2 17 5 13 3 -3 4 -12 1 -19z
m380 6 c4 -10 -8 -30 -36 -57 l-41 -42 0 30 c0 18 10 40 27 57 31 32 41 35 50
12z m1067 -61 c4 -47 2 -73 -4 -73 -6 0 -10 32 -10 77 0 42 2 74 4 72 2 -2 6
-37 10 -76z m-1286 -13 c-12 -16 -23 -30 -25 -30 -4 0 5 63 14 94 5 18 7 17
20 -7 12 -24 12 -30 -9 -57z m462 66 c0 -13 -29 -31 -37 -22 -4 4 25 36 33 36
2 0 4 -6 4 -14z m-2213 -28 c-3 -7 -5 -2 -5 12 0 14 2 19 5 13 2 -7 2 -19 0
-25z m958 12 l20 -9 -20 0 c-11 0 -29 4 -40 9 l-20 9 20 0 c11 0 29 -4 40 -9z
m682 -47 c-3 -10 -5 -2 -5 17 0 19 2 27 5 18 2 -10 2 -26 0 -35z m-1705 12 c3
-14 1 -28 -3 -31 -5 -3 -9 9 -9 25 0 38 6 40 12 6z m1156 -24 c2 -7 -15 -2
-42 11 -25 12 -46 25 -46 30 0 11 83 -27 88 -41z m57 11 c-8 -8 -25 10 -25 26
0 13 2 13 14 -4 8 -10 13 -21 11 -22z m966 15 c-10 -9 -11 -8 -5 6 3 10 9 15
12 12 3 -3 0 -11 -7 -18z m-1146 2 c12 -19 -5 -23 -22 -6 -16 16 -16 17 -1 17
9 0 20 -5 23 -11z m364 -29 c7 0 11 -26 11 -70 0 -38 -2 -70 -5 -70 -16 0 -58
37 -71 62 -12 24 -13 36 -3 66 17 55 21 57 40 34 9 -12 22 -22 28 -22z m1737
-68 c-13 -12 -15 7 -8 59 l7 54 3 -54 c2 -29 1 -56 -2 -59z m-3056 63 c0 -14
-4 -25 -10 -25 -5 0 -10 11 -10 25 0 14 5 25 10 25 6 0 10 -11 10 -25z m1060
-10 c49 -25 34 -35 -22 -16 -32 11 -54 25 -56 34 -3 14 1 15 22 7 15 -5 40
-17 56 -25z m520 8 c-1 -24 -2 -26 -11 -10 -5 9 -7 22 -4 27 10 17 15 11 15
-17z m1263 -3 l87 -22 2 -42 1 -41 4 38 c3 30 8 37 19 33 9 -3 20 -6 26 -6 7
0 9 -22 5 -62 -3 -38 -2 -53 3 -38 4 14 8 37 9 52 1 15 6 30 12 34 9 5 11 -11
7 -60 -3 -37 -8 -70 -11 -73 -6 -6 -128 13 -162 25 -13 5 5 9 50 13 69 5 68 6
-30 7 -132 3 -153 17 -44 29 56 7 69 10 39 11 -25 0 -70 -3 -100 -7 -30 -5
-66 -5 -80 -1 -28 8 -25 10 55 34 28 8 43 15 35 15 -9 1 -45 -7 -82 -17 -88
-25 -110 -11 -29 18 33 13 61 24 61 27 0 6 -53 -10 -95 -28 -53 -24 -79 -23
-35 1 42 23 33 26 -17 5 -19 -8 -47 -15 -61 -15 -25 0 -25 0 -6 15 17 14 16
14 -13 0 -37 -18 -67 -20 -57 -4 5 8 1 8 -14 0 -11 -6 -45 -11 -74 -11 -30 0
-83 -11 -121 -24 -38 -14 -67 -20 -64 -13 3 10 89 41 222 81 l50 14 -45 -5
c-25 -3 -78 -16 -118 -29 -68 -21 -72 -21 -57 -4 17 18 96 49 180 69 22 6 112
9 200 7 127 -2 178 -8 248 -26z m-684 -6 c-15 -16 -25 -21 -28 -13 -2 7 4 18
15 26 30 22 39 15 13 -13z m-494 -41 c-10 -74 -16 -93 -27 -87 -16 10 10 134
28 134 3 0 3 -21 -1 -47z m191 21 c-4 -9 -9 -15 -11 -12 -3 3 -3 13 1 22 4 9
9 15 11 12 3 -3 3 -13 -1 -22z m97 12 c4 -10 -18 -27 -66 -55 l-72 -41 57 55
c59 57 72 64 81 41z m-797 -12 c18 -14 18 -14 -6 -3 -31 14 -36 19 -24 19 6 0
19 -7 30 -16z m308 -25 c3 -17 6 -41 5 -53 0 -20 0 -20 -8 -1 -14 35 -21 85
-12 85 5 0 11 -14 15 -31z m285 -71 c-7 -32 -21 -66 -31 -75 -17 -15 -18 -13
-18 42 0 57 0 58 20 40 23 -20 24 -17 10 20 -8 20 -6 32 8 53 l17 26 3 -23 c2
-13 -2 -51 -9 -83z m335 57 c-6 -32 -46 -76 -58 -64 -8 8 24 84 40 96 23 17
27 12 18 -32z m-504 -2 c0 -32 -5 -28 -14 10 -4 19 -3 26 4 22 5 -3 10 -18 10
-32z m-399 -13 c23 -22 39 -43 35 -47 -4 -4 -10 -3 -14 3 -4 5 -24 23 -44 38
-37 27 -48 46 -28 46 5 0 28 -18 51 -40z m229 -74 l0 -60 -30 29 c-24 23 -29
35 -25 57 3 15 8 42 11 59 l6 31 19 -28 c13 -20 19 -47 19 -88z m-310 47 c0
-13 -7 -10 -30 12 -16 16 -30 30 -30 32 0 2 14 -3 30 -12 17 -9 30 -23 30 -32z
m890 10 c0 -37 -12 -60 -40 -77 l-29 -17 15 38 c24 57 34 73 44 73 6 0 10 -8
10 -17z m-802 -50 c31 -21 61 -52 73 -75 20 -38 13 -52 -12 -22 -7 9 -39 34
-71 55 -38 26 -58 47 -58 59 0 27 7 26 68 -17z m1147 29 c-49 -42 -107 -84
-111 -79 -3 3 11 17 31 32 19 15 33 30 31 33 -3 2 -31 -17 -63 -44 l-58 -48
40 43 40 44 -45 -31 c-25 -16 -55 -40 -67 -51 -12 -12 -27 -21 -33 -21 -6 0
-22 -7 -36 -16 -38 -26 -37 -13 4 38 31 39 49 51 110 72 40 14 70 21 67 15 -4
-5 -2 -9 4 -9 5 0 13 5 16 11 4 6 13 8 21 5 7 -3 16 -1 19 4 4 6 14 10 23 10
9 0 12 -3 7 -8z m30 -16 c-16 -14 -43 -32 -60 -41 -25 -13 -22 -9 14 24 24 23
51 41 60 41 11 0 7 -8 -14 -24z m45 -6 c-58 -38 -74 -39 -30 0 19 16 44 29 55
30 14 0 7 -9 -25 -30z m49 -1 c-24 -17 -57 -43 -74 -58 l-30 -26 25 29 c29 33
98 86 113 86 6 0 -10 -14 -34 -31z m55 -7 c-32 -21 -65 -46 -73 -55 -15 -19
-36 -24 -25 -6 12 19 126 99 142 99 8 0 -11 -17 -44 -38z m74 -6 c-37 -18 -78
-42 -91 -54 -28 -26 -61 -32 -36 -6 32 31 145 94 169 94 18 -1 7 -9 -42 -34z
m102 4 c-34 -11 -60 -11 -35 0 11 5 29 8 40 8 16 0 15 -2 -5 -8z m-850 -3 c0
-2 -12 -14 -26 -28 l-27 -24 18 28 c14 22 35 36 35 24z m40 -36 c-13 -45 -95
-133 -109 -117 -7 9 -1 24 21 52 42 52 91 104 95 101 1 -2 -2 -18 -7 -36z
m893 22 c-7 -2 -21 -2 -30 0 -10 3 -4 5 12 5 17 0 24 -2 18 -5z m-1887 -28
c27 -8 57 -12 67 -9 26 8 121 -23 142 -46 17 -19 15 -19 -36 4 -62 29 -123 45
-99 26 11 -8 1 -9 -45 -4 -32 4 -116 10 -185 13 l-125 7 95 10 c134 16 132 16
186 -1z m1464 12 c0 -2 -10 -12 -22 -23 l-23 -19 19 23 c18 21 26 27 26 19z
m201 -28 c-24 -17 -45 -28 -48 -26 -5 6 67 57 81 57 5 0 -10 -14 -33 -31z
m334 21 c25 -11 -1 -11 -35 0 -20 6 -21 8 -5 8 11 0 29 -3 40 -8z m-256 -4
c-18 -18 -83 -56 -91 -54 -5 2 12 16 39 31 46 25 62 32 52 23z m380 -12 c1 -1
0 -7 -3 -13 -7 -10 -62 4 -81 21 -9 8 74 0 84 -8z m-1631 -27 c22 -21 29 -61
13 -85 -5 -9 -16 6 -34 48 -15 34 -27 64 -27 66 0 7 22 -6 48 -29z m902 23 c0
-5 -5 -10 -11 -10 -5 0 -7 5 -4 10 3 6 8 10 11 10 2 0 4 -4 4 -10z m351 -21
c-18 -11 -38 -18 -45 -16 -6 2 5 11 24 20 50 22 61 20 21 -4z m336 2 c15 -4
29 -13 31 -20 3 -8 0 -11 -6 -7 -6 4 -44 15 -84 26 -71 19 -71 19 -20 14 29
-3 65 -9 79 -13z m-1786 -8 c13 -15 12 -15 -8 -4 -24 12 -29 21 -14 21 5 0 15
-7 22 -17z m1514 2 c-22 -8 -47 -14 -55 -14 -21 1 51 27 75 28 11 0 2 -6 -20
-14z m-1556 -9 c28 -15 57 -44 50 -50 -2 -2 -24 11 -48 30 -47 36 -47 43 -2
20z m800 -45 c-36 -58 -49 -64 -49 -21 0 23 8 35 37 54 20 14 38 24 40 22 2
-2 -11 -27 -28 -55z m791 39 c-8 -5 -22 -9 -30 -9 -10 0 -8 3 5 9 27 12 43 12
25 0z m-575 -68 c-23 -48 -45 -68 -45 -41 0 13 60 102 66 96 2 -2 -7 -27 -21
-55z m67 19 c-9 -22 -25 -42 -34 -45 -23 -5 -23 -2 4 45 30 53 52 53 30 0z
m39 -15 c-17 -46 -32 -59 -39 -37 -2 6 1 11 8 11 6 0 9 4 6 8 -5 9 32 77 39
70 3 -2 -4 -26 -14 -52z m79 50 c0 -23 -27 -66 -47 -75 -14 -6 -27 -10 -29 -8
-8 7 48 87 62 87 8 0 14 -2 14 -4z m50 -2 c0 -16 -23 -44 -35 -44 -18 0 -19 5
-3 30 12 18 38 28 38 14z m46 -9 c-22 -17 -36 -19 -36 -7 0 14 12 22 34 22 21
-1 21 -1 2 -15z m347 8 c-7 -2 -19 -2 -25 0 -7 3 -2 5 12 5 14 0 19 -2 13 -5z
m-683 -55 c-16 -29 -34 -54 -41 -57 -9 -3 27 63 54 97 21 27 16 9 -13 -40z
m-842 -13 c-3 -3 -13 7 -23 22 l-17 28 23 -22 c12 -12 20 -25 17 -28z m182 19
c0 -8 9 -27 20 -43 17 -22 19 -32 10 -55 -12 -32 -18 -30 -54 22 -26 39 -26
40 -9 70 18 31 33 34 33 6z m584 -17 c-16 -18 -37 -44 -47 -57 -10 -14 -15
-18 -11 -10 13 27 69 99 78 100 4 0 -5 -15 -20 -33z m-191 -54 l-28 -23 -3 27
c-3 20 4 34 25 52 l28 25 3 -29 c3 -23 -3 -35 -25 -52z m206 32 c-12 -19 -23
-35 -25 -35 -6 0 14 40 29 58 18 23 16 12 -4 -23z m464 28 c-7 -2 -19 -2 -25
0 -7 3 -2 5 12 5 14 0 19 -2 13 -5z m207 -19 c0 -2 -9 0 -20 6 -11 6 -20 13
-20 16 0 2 9 0 20 -6 11 -6 20 -13 20 -16z m-240 1 c28 -16 19 -18 -30 -9 -22
5 -28 9 -18 15 17 11 18 11 48 -6z m-1242 -54 c14 -25 18 -39 10 -35 -7 3 -22
25 -34 50 -25 53 -8 42 24 -15z m86 33 c3 -8 2 -12 -4 -9 -6 3 -10 10 -10 16
0 14 7 11 14 -7z m-129 -14 c10 -11 13 -20 7 -20 -6 0 -16 9 -22 20 -6 11 -9
20 -7 20 2 0 12 -9 22 -20z m1317 -22 c27 -12 46 -23 44 -25 -2 -3 -22 5 -44
16 -22 11 -66 24 -97 27 -31 4 -51 10 -45 14 16 10 85 -5 142 -32z m340 0 c12
-17 17 -28 10 -25 -6 4 -21 22 -34 39 -12 17 -17 28 -10 25 6 -4 21 -22 34
-39z m-1555 -50 c-2 -7 -12 4 -21 26 -22 52 -20 58 5 19 11 -18 19 -38 16 -45z
m1429 3 c50 -58 38 -51 -26 15 -30 32 -45 50 -32 42 13 -9 39 -34 58 -57z
m-556 34 c-7 -9 -15 -13 -17 -11 -7 7 7 26 19 26 6 0 6 -6 -2 -15z m150 5
c-20 -13 -33 -13 -25 0 3 6 14 10 23 10 15 0 15 -2 2 -10z m-180 -14 c0 -14
-66 -65 -102 -79 -21 -8 -23 6 -7 52 14 40 49 44 41 5 -3 -19 -1 -25 7 -20 6
4 11 15 11 25 0 10 3 21 7 24 12 13 43 7 43 -7z m334 -10 c22 -9 37 -19 33
-22 -3 -3 -19 2 -37 11 -17 9 -50 20 -73 25 l-42 9 40 -3 c22 -2 58 -11 79
-20z m-1389 4 c-3 -5 -12 -10 -18 -10 -7 0 -6 4 3 10 19 12 23 12 15 0z m1591
-22 l29 -33 -32 29 c-31 28 -38 36 -30 36 2 0 16 -15 33 -32z m-822 10 c-4 -7
-20 -32 -36 -55 -15 -23 -28 -45 -28 -50 0 -4 -16 -21 -35 -36 -60 -48 -42 -3
31 79 63 70 84 89 68 62z m952 -40 c29 -59 18 -55 -15 5 -22 39 -24 47 -16 47
2 0 16 -24 31 -52z m-796 23 c0 -25 -21 -61 -35 -61 -12 0 -15 6 -9 23 11 37
44 65 44 38z m955 -23 l16 -33 -21 24 c-11 13 -20 27 -20 32 0 18 10 8 25 -23z
m-2050 12 c-3 -5 -11 -10 -16 -10 -6 0 -7 5 -4 10 3 6 11 10 16 10 6 0 7 -4 4
-10z m175 6 c0 -2 -7 -7 -16 -10 -8 -3 -12 -2 -9 4 6 10 25 14 25 6z m97 -2
c-3 -3 -12 -4 -19 -1 -8 3 -5 6 6 6 11 1 17 -2 13 -5z m157 -10 c3 -8 2 -12
-4 -9 -6 3 -10 10 -10 16 0 14 7 11 14 -7z m1275 -51 c58 -49 48 -68 -13 -25
-59 41 -85 64 -43 38 45 -28 43 -10 -2 20 -23 14 -41 29 -41 31 0 8 62 -32 99
-64z m-370 53 c-11 -9 -69 -15 -64 -6 3 6 20 10 37 10 17 0 29 -2 27 -4z
m-313 -51 c-7 -18 -26 -20 -26 -2 0 18 24 41 28 27 2 -6 1 -17 -2 -25z m-861
15 c-3 -5 -11 -10 -16 -10 -6 0 -7 5 -4 10 3 6 11 10 16 10 6 0 7 -4 4 -10z
m149 2 c3 -5 -8 -6 -25 -4 -16 2 -29 6 -29 8 0 8 49 4 54 -4z m-493 -19 c-5
-10 -17 -27 -26 -38 -16 -19 -16 -19 -4 5 13 27 29 50 36 50 2 0 -1 -8 -6 -17z
m30 -6 c-10 -9 -11 -8 -5 6 3 10 9 15 12 12 3 -3 0 -11 -7 -18z m209 19 c0 -3
-15 -14 -32 -26 l-33 -22 28 26 c27 25 37 31 37 22z m640 -17 c0 -6 -4 -7 -10
-4 -5 3 -10 11 -10 16 0 6 5 7 10 4 6 -3 10 -11 10 -16z m885 -15 c39 -13 81
-33 95 -44 22 -18 18 -18 -40 4 -83 31 -183 77 -150 70 14 -3 57 -16 95 -30z
m-1684 -21 c-8 -15 -10 -15 -11 -2 0 17 10 32 18 25 2 -3 -1 -13 -7 -23z m450
10 c13 -15 12 -15 -11 -3 -34 17 -36 20 -18 20 9 0 22 -7 29 -17z m106 -18
c12 -34 -5 -35 -25 -1 -21 36 -21 36 -1 26 11 -6 23 -18 26 -25z m286 -1 c-4
-10 -9 -12 -15 -6 -12 12 -1 35 12 27 5 -3 6 -13 3 -21z m337 23 c0 -2 -9 -12
-20 -22 -17 -16 -20 -16 -20 -2 0 8 8 18 18 20 9 3 18 5 20 6 1 0 2 -1 2 -2z
m-971 -20 c-22 -19 -99 -67 -99 -63 0 9 82 66 93 66 6 0 8 -2 6 -3z m921 -15
c0 -10 -11 -29 -25 -42 l-25 -23 0 35 c0 20 6 39 13 41 25 10 37 7 37 -11z
m-1287 -7 c-3 -9 -8 -14 -10 -11 -3 3 -2 9 2 15 9 16 15 13 8 -4z m241 -20
c-9 -14 -19 -24 -21 -21 -7 7 16 46 28 46 5 0 2 -11 -7 -25z m514 -31 c2 -45
1 -48 -13 -30 -19 24 -21 90 -2 84 7 -3 13 -25 15 -54z m458 -10 c-3 -8 -10
-14 -16 -14 -12 0 -5 53 9 75 8 13 14 -42 7 -61z m-1084 14 c-7 -7 -12 -8 -12
-2 0 14 12 26 19 19 2 -3 -1 -11 -7 -17z m658 -43 c0 -53 -11 -72 -24 -39 -5
14 12 94 21 94 1 0 3 -25 3 -55z m-590 2 c-8 -9 -9 -7 -4 7 5 13 4 17 -4 12
-13 -8 -17 6 -5 18 4 3 11 -1 16 -10 6 -10 5 -20 -3 -27z m966 -15 c-11 -10
-14 3 -8 33 l7 30 3 -28 c2 -16 1 -31 -2 -35z m-187 -18 c-6 -32 -13 -62 -16
-67 -4 -7 -53 77 -53 92 0 7 71 40 77 36 2 -1 -2 -28 -8 -61z m125 27 c-4 -17
-9 -30 -11 -27 -3 2 -2 19 2 36 9 41 17 33 9 -9z m681 29 c13 -6 15 -9 5 -9
-8 0 -22 4 -30 9 -18 12 -2 12 25 0z m-723 -79 c-9 -36 -17 -60 -20 -53 -4 12
27 127 33 121 1 -2 -4 -33 -13 -68z m-890 27 c-7 -7 -12 -8 -12 -2 0 14 12 26
19 19 2 -3 -1 -11 -7 -17z m1354 4 c-27 -2 -52 0 -57 5 -4 4 18 6 49 3 l57 -5
-49 -3z m-711 -70 c-3 -3 -10 -1 -17 6 -8 8 -7 19 3 44 l14 33 3 -39 c2 -21 1
-41 -3 -44z m312 56 c-3 -8 -6 -5 -6 6 -1 11 2 17 5 13 3 -3 4 -12 1 -19z
m238 10 c-11 -6 -22 -14 -25 -18 -10 -12 -80 -49 -80 -42 0 19 28 44 65 57 48
17 67 19 40 3z m252 -4 c-3 -3 -12 -4 -19 -1 -8 3 -5 6 6 6 11 1 17 -2 13 -5z
m-471 -114 c-30 -61 -56 -113 -59 -116 -7 -7 -20 78 -15 101 4 26 28 31 28 6
0 -11 5 -23 11 -27 8 -5 9 5 4 34 -7 42 9 67 26 41 7 -11 9 -10 9 5 0 16 35
66 46 66 2 0 -21 -50 -50 -110z m-59 78 c-3 -8 -6 -5 -6 6 -1 11 2 17 5 13 3
-3 4 -12 1 -19z m-1238 -74 c-7 -27 -14 -43 -16 -37 -5 14 16 97 23 90 3 -2
-1 -26 -7 -53z m1734 49 c-7 -2 -21 -2 -30 0 -10 3 -4 5 12 5 17 0 24 -2 18
-5z m-733 -36 c0 -5 -4 -5 -10 -2 -5 3 -10 14 -10 23 0 15 2 15 10 2 5 -8 10
-19 10 -23z m85 3 c18 -35 21 -124 3 -118 -12 4 -15 16 -25 96 -7 59 0 65 22
22z m383 20 c-4 -13 -108 -73 -108 -63 1 17 29 43 61 57 41 18 52 19 47 6z
m-548 -81 c11 -17 3 -14 -33 14 -27 20 -53 37 -58 37 -5 0 -9 5 -9 11 0 16 82
-35 100 -62z m537 6 c-4 -8 -11 -15 -17 -15 -14 0 -13 27 3 33 16 6 21 1 14
-18z m-544 -47 c15 -11 27 -24 27 -29 0 -10 -87 48 -97 64 -7 11 32 -9 70 -35z
m298 -71 c-15 -18 -16 -18 -22 0 -10 24 -11 98 -2 107 4 4 15 -14 23 -41 15
-43 15 -50 1 -66z m-201 67 c0 -8 5 -14 10 -14 6 0 10 -4 10 -10 0 -19 -17
-10 -28 15 -15 32 -15 38 -2 30 6 -3 10 -13 10 -21z m455 -22 c-22 -5 -29 3
-21 25 7 17 8 17 22 -2 13 -18 13 -20 -1 -23z m-105 24 c0 -2 -8 -10 -17 -17
-16 -13 -17 -12 -4 4 13 16 21 21 21 13z m-500 -42 c0 -8 -4 -14 -10 -14 -5 0
-10 9 -10 21 0 11 5 17 10 14 6 -3 10 -13 10 -21z m312 -48 c2 -17 -2 -31 -9
-33 -9 -3 -13 8 -13 38 0 47 16 44 22 -5z m152 3 c-24 -27 -30 -15 -9 18 12
17 20 23 23 15 2 -7 -4 -22 -14 -33z m185 27 c10 -11 8 -16 -9 -21 -24 -8 -46
7 -36 24 10 15 31 14 45 -3z m-669 -41 c0 -17 -17 -28 -30 -20 -6 4 -5 13 2
25 13 20 28 18 28 -5z m117 -37 c-3 -8 -6 -5 -6 6 -1 11 2 17 5 13 3 -3 4 -12
1 -19z m355 -19 c-18 -16 -32 -27 -32 -23 0 12 53 64 59 58 3 -3 -9 -18 -27
-35z m-119 -19 c-3 -11 -10 -20 -15 -20 -5 0 -7 -4 -4 -9 3 -5 -2 -26 -11 -47
l-17 -39 -4 28 c-2 19 6 42 22 68 29 44 37 49 29 19z m187 1 c0 -5 -8 -12 -18
-15 -10 -4 -37 -25 -60 -48 -23 -22 -42 -36 -42 -30 0 12 98 102 111 102 5 0
9 -4 9 -9z m-423 -48 c-4 -17 -4 -17 -12 0 -4 9 -4 25 0 35 8 16 8 16 12 0 3
-10 3 -26 0 -35z m-9 -53 c12 -18 22 -38 22 -43 0 -12 -69 64 -70 76 0 18 26
-1 48 -33z m342 -3 c0 -2 -10 -12 -22 -23 l-23 -19 19 23 c18 21 26 27 26 19z"/>
<path d="M7660 4106 c0 -2 12 -12 28 -21 l27 -18 -19 21 c-17 20 -36 29 -36
18z"/>
<path d="M8278 7843 c7 -3 16 -2 19 1 4 3 -2 6 -13 5 -11 0 -14 -3 -6 -6z"/>
<path d="M7178 1639 c-56 -8 -224 -60 -257 -79 -23 -14 25 -12 214 5 225 21
440 19 604 -5 73 -11 143 -22 155 -26 14 -4 18 -3 11 4 -14 15 -243 80 -343
97 -91 16 -290 18 -384 4z"/>
<path d="M5576 1605 c-42 -15 -92 -59 -131 -116 -38 -54 -109 -89 -183 -89
-70 0 -197 -24 -265 -51 -49 -20 -130 -69 -112 -69 6 0 65 16 132 34 67 19
153 38 190 41 101 10 283 -10 400 -43 56 -16 100 -26 98 -22 -11 17 -176 80
-240 90 -103 18 -105 19 -64 40 19 10 57 38 85 63 64 57 85 67 142 69 79 3
205 -74 265 -162 13 -20 12 -13 -4 30 -36 97 -93 154 -183 184 -59 19 -79 19
-130 1z"/>
<path d="M8687 1476 c-47 -17 -59 -28 -112 -96 -29 -37 -63 -67 -102 -88 -42
-23 -50 -31 -28 -26 51 11 92 34 150 85 72 63 85 69 143 72 83 3 218 -78 258
-156 29 -54 25 -19 -4 44 -38 83 -90 133 -166 159 -69 23 -87 24 -139 6z"/>
<path d="M7885 1235 c-44 -8 -114 -27 -155 -41 -83 -29 -223 -94 -216 -101 2
-2 34 5 70 16 144 45 274 63 471 68 212 6 335 -4 500 -41 61 -13 112 -23 114
-21 11 11 -192 80 -316 106 -128 28 -355 34 -468 14z"/>
<path d="M8825 1130 c-50 -11 -138 -35 -195 -55 -112 -37 -107 -38 80 -9 109
16 424 19 570 4 219 -22 245 -23 235 -11 -16 16 -151 61 -233 77 -108 21 -345
17 -457 -6z"/>
<path d="M3768 1070 c-147 -23 -317 -79 -193 -63 33 5 141 8 240 7 238 0 376
-25 680 -119 128 -40 228 -39 400 2 257 63 418 76 755 61 130 -6 258 -7 285
-3 l50 8 -95 23 c-193 47 -296 57 -545 51 -240 -5 -326 -16 -533 -64 l-113
-27 -157 33 c-432 91 -435 91 -577 96 -77 2 -165 0 -197 -5z"/>
<path d="M8585 804 c-88 -21 -276 -82 -303 -98 -21 -11 -38 -9 -120 11 -82 20
-116 23 -217 20 -134 -4 -206 -25 -267 -78 l-33 -29 45 19 c92 38 173 51 307
51 151 0 239 -15 385 -63 57 -19 104 -34 106 -32 6 5 -117 55 -168 68 -29 8
-49 16 -44 19 5 3 45 17 89 31 147 48 211 59 370 59 149 0 200 -9 330 -56 49
-18 -38 44 -92 65 -49 20 -79 24 -193 26 -93 1 -154 -3 -195 -13z"/>
<path d="M5538 610 c-100 -38 -150 -87 -183 -179 -21 -59 -18 -74 5 -29 42 79
169 148 273 148 59 0 156 -29 203 -61 42 -29 124 -115 124 -130 0 -5 -12 -15
-27 -23 -45 -23 -90 -77 -117 -139 -35 -77 -32 -93 4 -34 56 88 180 145 294
134 109 -11 153 -32 240 -119 82 -82 87 -80 33 11 -36 59 -109 130 -159 154
-51 24 -180 39 -219 25 -23 -8 -34 -8 -36 -1 -8 22 -75 129 -96 151 -79 85
-242 129 -339 92z"/>
<path d="M7610 434 c-110 -12 -190 -29 -263 -54 -95 -32 -183 -71 -212 -93
-16 -13 -8 -12 43 3 197 61 431 85 683 70 157 -9 196 -14 337 -47 119 -27 77
2 -74 52 -149 49 -397 82 -514 69z"/>
<path d="M4834 336 c-40 -8 -87 -18 -105 -24 -175 -52 -218 -66 -215 -69 2 -2
66 5 142 17 170 24 399 26 629 5 88 -8 174 -14 190 -14 27 1 26 3 -23 25 -110
50 -195 66 -377 70 -116 2 -193 -1 -241 -10z"/>
</g>
</svg>
