<svg width="521.4799926757812px" height="138.64000244140624px" xmlns="http://www.w3.org/2000/svg" viewBox="-10.739996337890602 5.679998779296881 521.4799926757812 138.64000244140624" style="background: rgba(0, 0, 0, 0) none repeat scroll 0% 0%;" preserveAspectRatio="xMidYMid"><defs><filter id="editing-neon" x="-100%" y="-100%" width="300%" height="300%"><feFlood flood-color="rgba(61.139210863139105%,77.54888168045791%,90.36191231863839%,0.346)" result="flood"></feFlood><feComposite operator="in" in="flood" in2="SourceAlpha" result="color"></feComposite><feFlood flood-color="rgba(61.139210863139105%,77.54888168045791%,90.36191231863839%,0.346)" result="flood2"></feFlood><feComposite operator="in" in="flood2" in2="SourceAlpha" result="color2"></feComposite><feMorphology operator="dilate" radius="2" in="color" result="dilate"></feMorphology><feGaussianBlur stdDeviation="6" in="color" result="blur1"></feGaussianBlur><feGaussianBlur stdDeviation="2.5" in="color" result="blur2"></feGaussianBlur><feGaussianBlur stdDeviation="1" in="SourceAlpha" result="blur3"></feGaussianBlur><feGaussianBlur stdDeviation="6" in="dilate" result="blur4"></feGaussianBlur><feConvolveMatrix in="color2" result="conv" order="3,3" divisor="1" kernelMatrix="1 1 1  1 1 1  1 1 1"></feConvolveMatrix><feMerge><feMergeNode in="blur1"></feMergeNode><feMergeNode in="blur2"></feMergeNode><feMergeNode in="blur4"></feMergeNode><feMergeNode in="blur3"></feMergeNode><feMergeNode in="blur3"></feMergeNode><feMergeNode in="blur3"></feMergeNode><feMergeNode in="blur3"></feMergeNode><feMergeNode in="conv"></feMergeNode><feMergeNode in="SourceGraphic"></feMergeNode></feMerge></filter></defs><g filter="url(#editing-neon)"><g transform="translate(69.83983612060547, 101.625)"><path d="M28.90-32.80L28.90-32.80L28.90-32.80Q29.96-34.93 29.96-36.92L29.96-36.92L29.96-36.92Q29.96-38.91 29.75-40.01L29.75-40.01L29.75-40.01Q29.54-41.11 29.04-41.96L29.04-41.96L29.04-41.96Q27.97-43.81 25.84-43.81L25.84-43.81L25.84-43.81Q23.22-43.81 21.09-41.89L21.09-41.89L21.09-41.89Q18.82-39.90 18.82-36.78L18.82-36.78L18.82-36.78Q18.82-34.79 20.20-33.26L20.20-33.26L20.20-33.26Q21.58-31.74 23.71-30.32L23.71-30.32L23.71-30.32Q25.84-28.90 28.26-27.48L28.26-27.48L28.26-27.48Q30.67-26.06 32.80-24.35L32.80-24.35L32.80-24.35Q37.70-20.45 37.70-15.19L37.70-15.19L37.70-15.19Q37.70-11.64 35.82-8.63L35.82-8.63L35.82-8.63Q33.94-5.61 30.81-3.41L30.81-3.41L30.81-3.41Q24.00 1.42 14.98 1.42L14.98 1.42L14.98 1.42Q7.67 1.42 3.91-0.96L3.91-0.96L3.91-0.96Q0.14-3.34 0.14-6.96L0.14-6.96L0.14-6.96Q0.14-13.42 5.18-15.05L5.18-15.05L5.18-15.05Q6.60-15.55 8.77-15.55L8.77-15.55L8.77-15.55Q10.93-15.55 13.42-14.63L13.42-14.63L13.42-14.63Q12.28-11.72 12.28-9.09L12.28-9.09L12.28-9.09Q12.28-3.41 16.33-3.41L16.33-3.41L16.33-3.41Q18.96-3.41 21.12-5.33L21.12-5.33L21.12-5.33Q23.29-7.24 23.29-9.41L23.29-9.41L23.29-9.41Q23.29-11.57 21.90-13.14L21.90-13.14L21.90-13.14Q20.52-14.70 18.46-15.94L18.46-15.94L18.46-15.94Q16.40-17.18 14.02-18.39L14.02-18.39L14.02-18.39Q11.64-19.60 9.59-21.30L9.59-21.30L9.59-21.30Q4.76-25.21 4.76-31.45L4.76-31.45L4.76-31.45Q4.76-35.50 6.75-38.66L6.75-38.66L6.75-38.66Q8.73-41.82 11.93-43.95L11.93-43.95L11.93-43.95Q18.32-48.28 26.16-48.28L26.16-48.28L26.16-48.28Q34.01-48.28 37.81-45.94L37.81-45.94L37.81-45.94Q41.61-43.59 41.61-39.62L41.61-39.62L41.61-39.62Q41.61-36.14 38.91-33.94L38.91-33.94L38.91-33.94Q36.57-32.09 33.73-32.09L33.73-32.09L33.73-32.09Q30.89-32.09 28.90-32.80ZM58.58 1.42L58.58 1.42L58.58 1.42Q42.96 1.42 42.96-13.28L42.96-13.28L42.96-13.28Q42.96-23.71 48.71-30.46L48.71-30.46L48.71-30.46Q54.81-37.63 65.39-37.63L65.39-37.63L65.39-37.63Q73.06-37.63 76.96-34.08L76.96-34.08L76.96-34.08Q80.87-30.53 80.87-23.08L80.87-23.08L80.87-23.08Q80.87-11.72 74.76-5.11L74.76-5.11L74.76-5.11Q68.80 1.42 58.58 1.42ZM60.42-29.47L60.42-29.47L60.42-29.47Q59.57-27.55 58.89-24.67L58.89-24.67L58.89-24.67Q58.22-21.80 57.37-17.25L57.37-17.25L57.37-17.25Q56.52-12.71 56.52-7.10L56.52-7.10L56.52-7.10Q56.52-5.25 57.12-4.05L57.12-4.05L57.12-4.05Q57.72-2.84 59.36-2.84L59.36-2.84L59.36-2.84Q60.99-2.84 62.02-3.62L62.02-3.62L62.02-3.62Q63.05-4.40 63.83-6.25L63.83-6.25L63.83-6.25Q65.25-9.51 66.39-15.58L66.39-15.58L66.39-15.58Q67.52-21.66 67.63-24.28L67.63-24.28L67.63-24.28Q67.73-26.91 67.73-28.86L67.73-28.86L67.73-28.86Q67.73-30.81 67.17-32.09L67.17-32.09L67.17-32.09Q66.60-33.37 65.00-33.37L65.00-33.37L65.00-33.37Q63.40-33.37 62.34-32.38L62.34-32.38L62.34-32.38Q61.27-31.38 60.42-29.47ZM107.28-19.95L107.28-19.95L107.28-19.95Q109.84-24.50 109.84-29.11L109.84-29.11L109.84-29.11Q109.84-32.16 107.64-32.16L107.64-32.16L107.64-32.16Q105.93-32.16 104.16-29.25L104.16-29.25L104.16-29.25Q102.31-26.34 101.74-22.58L101.74-22.58L98.05 0L83.35 1.42L90.60-36.21L102.31-37.63L101.03-30.46L101.03-30.46Q104.51-37.63 112.32-37.63L112.32-37.63L112.32-37.63Q116.44-37.63 118.68-35.50L118.68-35.50L118.68-35.50Q120.91-33.37 120.91-29.00L120.91-29.00L120.91-29.00Q120.91-24.64 118.04-21.87L118.04-21.87L118.04-21.87Q115.16-19.10 110.26-19.10L110.26-19.10L110.26-19.10Q108.13-19.10 107.28-19.95ZM123.19-7.10L123.19-7.10L123.19-7.10Q123.19-9.02 124.18-13.85L124.18-13.85L127.94-33.02L123.75-33.02L124.04-35.15L124.04-35.15Q132.56-37.70 140.79-43.95L140.79-43.95L144.20-43.95L142.50-36.21L148.04-36.21L147.40-33.02L141.93-33.02L138.31-13.85L138.31-13.85Q137.39-9.44 137.39-7.95L137.39-7.95L137.39-7.95Q137.39-4.54 140.37-3.83L140.37-3.83L140.37-3.83Q139.66-1.42 137.10 0L137.10 0L137.10 0Q134.55 1.42 130.92 1.42L130.92 1.42L130.92 1.42Q127.30 1.42 125.24-0.85L125.24-0.85L125.24-0.85Q123.19-3.12 123.19-7.10ZM164.72-3.91L164.72-3.91L164.72-3.91Q162.52 1.42 155.49 1.42L155.49 1.42L155.49 1.42Q151.87 1.42 149.60-1.07L149.60-1.07L149.60-1.07Q147.68-3.27 147.68-5.47L147.68-5.47L147.68-5.47Q147.68-11.22 150.31-22.44L150.31-22.44L152.93-36.21L167.35-37.63L163.02-15.19L163.02-15.19Q161.81-9.94 161.81-8.09L161.81-8.09L161.81-8.09Q161.81-4.05 164.72-3.91ZM154.21-46.08L154.21-46.08L154.21-46.08Q154.21-48.85 156.52-50.34L156.52-50.34L156.52-50.34Q158.83-51.83 162.16-51.83L162.16-51.83L162.16-51.83Q165.50-51.83 167.52-50.34L167.52-50.34L167.52-50.34Q169.55-48.85 169.55-46.08L169.55-46.08L169.55-46.08Q169.55-43.31 167.31-41.89L167.31-41.89L167.31-41.89Q165.08-40.47 161.74-40.47L161.74-40.47L161.74-40.47Q158.40-40.47 156.31-41.89L156.31-41.89L156.31-41.89Q154.21-43.31 154.21-46.08ZM192.98-19.95L192.98-19.95L192.98-19.95Q195.53-24.50 195.53-29.11L195.53-29.11L195.53-29.11Q195.53-32.16 193.33-32.16L193.33-32.16L193.33-32.16Q191.63-32.16 189.85-29.25L189.85-29.25L189.85-29.25Q188.01-26.34 187.44-22.58L187.44-22.58L183.75 0L169.05 1.42L176.29-36.21L188.01-37.63L186.73-30.46L186.73-30.46Q190.21-37.63 198.02-37.63L198.02-37.63L198.02-37.63Q202.14-37.63 204.37-35.50L204.37-35.50L204.37-35.50Q206.61-33.37 206.61-29.00L206.61-29.00L206.61-29.00Q206.61-24.64 203.73-21.87L203.73-21.87L203.73-21.87Q200.86-19.10 195.96-19.10L195.96-19.10L195.96-19.10Q193.83-19.10 192.98-19.95ZM201.14-4.19L201.14-4.19L201.14-4.19Q201.14-6.89 203.24-8.38L203.24-8.38L203.24-8.38Q205.33-9.87 208.31-9.87L208.31-9.87L208.31-9.87Q211.30-9.87 213.11-8.38L213.11-8.38L213.11-8.38Q214.92-6.89 214.92-4.19L214.92-4.19L214.92-4.19Q214.92-1.49 212.89-0.04L212.89-0.04L212.89-0.04Q210.87 1.42 207.89 1.42L207.89 1.42L207.89 1.42Q204.91 1.42 203.02-0.04L203.02-0.04L203.02-0.04Q201.14-1.49 201.14-4.19ZM256.38-29.54L256.38-29.54L256.38-29.54Q256.38-26.55 253.90-24.71L253.90-24.71L253.90-24.71Q251.41-22.86 247.36-22.86L247.36-22.86L247.36-22.86Q245.66-22.86 244.67-23.36L244.67-23.36L244.67-23.36Q245.45-25.21 245.70-27.51L245.70-27.51L245.70-27.51Q245.94-29.82 245.94-30.46L245.94-30.46L245.94-30.46Q245.94-33.44 243.89-33.44L243.89-33.44L243.89-33.44Q242.47-33.44 240.87-31.67L240.87-31.67L240.87-31.67Q239.27-29.89 237.92-27.12L237.92-27.12L237.92-27.12Q234.94-20.73 234.94-14.27L234.94-14.27L234.94-14.27Q234.94-10.72 236.29-9.12L236.29-9.12L236.29-9.12Q237.64-7.53 240.62-7.53L240.62-7.53L240.62-7.53Q244.74-7.53 248.00-10.93L248.00-10.93L248.00-10.93Q248.93-12.00 249.42-13.21L249.42-13.21L249.42-13.21Q252.12-11.79 252.12-7.88L252.12-7.88L252.12-7.88Q252.12-3.91 247.72-1.28L247.72-1.28L247.72-1.28Q243.18 1.42 235.93 1.42L235.93 1.42L235.93 1.42Q221.52 1.42 221.52-13.85L221.52-13.85L221.52-13.85Q221.52-24.99 227.84-31.38L227.84-31.38L227.84-31.38Q233.95-37.63 245.16-37.63L245.16-37.63L245.16-37.63Q256.38-37.63 256.38-29.54ZM273.78 1.42L273.78 1.42L273.78 1.42Q258.16 1.42 258.16-13.28L258.16-13.28L258.16-13.28Q258.16-23.71 263.91-30.46L263.91-30.46L263.91-30.46Q270.01-37.63 280.59-37.63L280.59-37.63L280.59-37.63Q288.26-37.63 292.17-34.08L292.17-34.08L292.17-34.08Q296.07-30.53 296.07-23.08L296.07-23.08L296.07-23.08Q296.07-11.72 289.96-5.11L289.96-5.11L289.96-5.11Q284 1.42 273.78 1.42ZM275.62-29.47L275.62-29.47L275.62-29.47Q274.77-27.55 274.10-24.67L274.10-24.67L274.10-24.67Q273.42-21.80 272.57-17.25L272.57-17.25L272.57-17.25Q271.72-12.71 271.72-7.10L271.72-7.10L271.72-7.10Q271.72-5.25 272.32-4.05L272.32-4.05L272.32-4.05Q272.92-2.84 274.56-2.84L274.56-2.84L274.56-2.84Q276.19-2.84 277.22-3.62L277.22-3.62L277.22-3.62Q278.25-4.40 279.03-6.25L279.03-6.25L279.03-6.25Q280.45-9.51 281.59-15.58L281.59-15.58L281.59-15.58Q282.72-21.66 282.83-24.28L282.83-24.28L282.83-24.28Q282.94-26.91 282.94-28.86L282.94-28.86L282.94-28.86Q282.94-30.81 282.37-32.09L282.37-32.09L282.37-32.09Q281.80-33.37 280.20-33.37L280.20-33.37L280.20-33.37Q278.60-33.37 277.54-32.38L277.54-32.38L277.54-32.38Q276.47-31.38 275.62-29.47ZM351.38 1.42L351.38 1.42L351.38 1.42Q342.79 1.42 342.79-5.25L342.79-5.25L342.79-5.25Q342.79-8.17 344.03-13.81L344.03-13.81L344.03-13.81Q345.27-19.45 345.70-21.73L345.70-21.73L345.70-21.73Q346.69-26.91 346.69-28.54L346.69-28.54L346.69-28.54Q346.69-32.16 344.00-32.16L344.00-32.16L344.00-32.16Q342.22-32.16 340.52-29.71L340.52-29.71L340.52-29.71Q338.81-27.26 338.03-22.37L338.03-22.37L333.63 0L319.78 1.42L323.62-17.89L323.62-17.89Q324.26-21.09 324.83-24.71L324.83-24.71L324.83-24.71Q325.39-28.33 325.39-28.90L325.39-28.90L325.39-28.90Q325.39-32.16 322.98-32.16L322.98-32.16L322.98-32.16Q321.35-32.16 319.57-29.75L319.57-29.75L319.57-29.75Q317.80-27.34 316.80-22.37L316.80-22.37L312.47 0L298.48 1.42L305.94-36.21L317.51-37.63L316.31-30.46L316.31-30.46Q318.15-34.29 321.56-35.96L321.56-35.96L321.56-35.96Q324.97-37.63 330.29-37.63L330.29-37.63L330.29-37.63Q333.35-37.63 335.33-36.14L335.33-36.14L335.33-36.14Q337.32-34.65 337.96-32.23L337.96-32.23L337.96-32.23Q339.17-34.72 342.26-36.17L342.26-36.17L342.26-36.17Q345.34-37.63 349.14-37.63L349.14-37.63L349.14-37.63Q352.94-37.63 354.82-36.81L354.82-36.81L354.82-36.81Q356.70-36.00 357.84-34.65L357.84-34.65L357.84-34.65Q359.76-32.16 359.76-27.62L359.76-27.62L359.76-27.62Q359.76-23.15 357.84-13.85L357.84-13.85L357.84-13.85Q356.85-9.30 356.85-7.63L356.85-7.63L356.85-7.63Q356.85-5.96 357.80-4.97L357.80-4.97L357.80-4.97Q358.76-3.98 360.18-3.83L360.18-3.83L360.18-3.83Q359.47-1.42 357.02 0L357.02 0L357.02 0Q354.57 1.42 351.38 1.42Z" fill="none" stroke="#ffffff" stroke-width="2.5"></path></g></g><style>text {
  font-size: 64px;
  font-family: Arial Black;
  dominant-baseline: central;
  text-anchor: middle;
}</style></svg>