<svg width="555.1800048828125px" height="144.64000244140624px" xmlns="http://www.w3.org/2000/svg" viewBox="-27.590002441406227 2.6799987792968807 555.1800048828125 144.64000244140624" style="background: rgba(0, 0, 0, 0) none repeat scroll 0% 0%;" preserveAspectRatio="xMidYMid"><defs><filter id="editing-neon" x="-100%" y="-100%" width="300%" height="300%"><feFlood flood-color="rgba(0%,28.627450980392098%,50.98039215686274%,0.668)" result="flood"></feFlood><feComposite operator="in" in="flood" in2="SourceAlpha" result="color"></feComposite><feFlood flood-color="rgba(0%,28.627450980392098%,50.98039215686274%,0.668)" result="flood2"></feFlood><feComposite operator="in" in="flood2" in2="SourceAlpha" result="color2"></feComposite><feMorphology operator="dilate" radius="2" in="color" result="dilate"></feMorphology><feGaussianBlur stdDeviation="6" in="color" result="blur1"></feGaussianBlur><feGaussianBlur stdDeviation="2.5" in="color" result="blur2"></feGaussianBlur><feGaussianBlur stdDeviation="1" in="SourceAlpha" result="blur3"></feGaussianBlur><feGaussianBlur stdDeviation="6" in="dilate" result="blur4"></feGaussianBlur><feConvolveMatrix in="color2" result="conv" order="3,3" divisor="1" kernelMatrix="1 1 1  1 1 1  1 1 1"></feConvolveMatrix><feMerge><feMergeNode in="blur1"></feMergeNode><feMergeNode in="blur2"></feMergeNode><feMergeNode in="blur4"></feMergeNode><feMergeNode in="blur3"></feMergeNode><feMergeNode in="blur3"></feMergeNode><feMergeNode in="blur3"></feMergeNode><feMergeNode in="blur3"></feMergeNode><feMergeNode in="conv"></feMergeNode><feMergeNode in="SourceGraphic"></feMergeNode></feMerge></filter></defs><g filter="url(#editing-neon)"><g transform="translate(57.150386810302734, 103.50000190734863)"><path d="M30.93-35.11L30.93-35.11L30.93-35.11Q32.07-37.39 32.07-39.52L32.07-39.52L32.07-39.52Q32.07-41.65 31.84-42.83L31.84-42.83L31.84-42.83Q31.62-44.00 31.08-44.92L31.08-44.92L31.08-44.92Q29.94-46.89 27.66-46.89L27.66-46.89L27.66-46.89Q24.85-46.89 22.57-44.84L22.57-44.84L22.57-44.84Q20.14-42.71 20.14-39.37L20.14-39.37L20.14-39.37Q20.14-37.24 21.62-35.61L21.62-35.61L21.62-35.61Q23.10-33.97 25.38-32.45L25.38-32.45L25.38-32.45Q27.66-30.93 30.25-29.41L30.25-29.41L30.25-29.41Q32.83-27.89 35.11-26.07L35.11-26.07L35.11-26.07Q40.36-21.89 40.36-16.26L40.36-16.26L40.36-16.26Q40.36-12.46 38.34-9.23L38.34-9.23L38.34-9.23Q36.33-6.00 32.98-3.65L32.98-3.65L32.98-3.65Q25.69 1.52 16.04 1.52L16.04 1.52L16.04 1.52Q8.21 1.52 4.18-1.03L4.18-1.03L4.18-1.03Q0.15-3.57 0.15-7.45L0.15-7.45L0.15-7.45Q0.15-14.36 5.55-16.11L5.55-16.11L5.55-16.11Q7.07-16.64 9.39-16.64L9.39-16.64L9.39-16.64Q11.70-16.64 14.36-15.66L14.36-15.66L14.36-15.66Q13.15-12.54 13.15-9.73L13.15-9.73L13.15-9.73Q13.15-3.65 17.48-3.65L17.48-3.65L17.48-3.65Q20.29-3.65 22.61-5.70L22.61-5.70L22.61-5.70Q24.93-7.75 24.93-10.07L24.93-10.07L24.93-10.07Q24.93-12.39 23.45-14.06L23.45-14.06L23.45-14.06Q21.96-15.73 19.76-17.06L19.76-17.06L19.76-17.06Q17.56-18.39 15.01-19.68L15.01-19.68L15.01-19.68Q12.46-20.98 10.26-22.80L10.26-22.80L10.26-22.80Q5.09-26.98 5.09-33.67L5.09-33.67L5.09-33.67Q5.09-38 7.22-41.38L7.22-41.38L7.22-41.38Q9.35-44.76 12.77-47.04L12.77-47.04L12.77-47.04Q19.61-51.68 28.01-51.68L28.01-51.68L28.01-51.68Q36.40-51.68 40.47-49.17L40.47-49.17L40.47-49.17Q44.54-46.66 44.54-42.41L44.54-42.41L44.54-42.41Q44.54-38.68 41.65-36.33L41.65-36.33L41.65-36.33Q39.14-34.35 36.10-34.35L36.10-34.35L36.10-34.35Q33.06-34.35 30.93-35.11ZM62.70 1.52L62.70 1.52L62.70 1.52Q45.98 1.52 45.98-14.21L45.98-14.21L45.98-14.21Q45.98-25.38 52.14-32.60L52.14-32.60L52.14-32.60Q58.67-40.28 70.00-40.28L70.00-40.28L70.00-40.28Q78.20-40.28 82.38-36.48L82.38-36.48L82.38-36.48Q86.56-32.68 86.56-24.70L86.56-24.70L86.56-24.70Q86.56-12.54 80.03-5.47L80.03-5.47L80.03-5.47Q73.64 1.52 62.70 1.52ZM64.68-31.54L64.68-31.54L64.68-31.54Q63.76-29.49 63.04-26.41L63.04-26.41L63.04-26.41Q62.32-23.33 61.41-18.47L61.41-18.47L61.41-18.47Q60.50-13.60 60.50-7.60L60.50-7.60L60.50-7.60Q60.50-5.62 61.14-4.33L61.14-4.33L61.14-4.33Q61.79-3.04 63.54-3.04L63.54-3.04L63.54-3.04Q65.28-3.04 66.39-3.88L66.39-3.88L66.39-3.88Q67.49-4.71 68.32-6.69L68.32-6.69L68.32-6.69Q69.84-10.18 71.06-16.68L71.06-16.68L71.06-16.68Q72.28-23.18 72.39-25.99L72.39-25.99L72.39-25.99Q72.50-28.80 72.50-30.89L72.50-30.89L72.50-30.89Q72.50-32.98 71.90-34.35L71.90-34.35L71.90-34.35Q71.29-35.72 69.58-35.72L69.58-35.72L69.58-35.72Q67.87-35.72 66.73-34.66L66.73-34.66L66.73-34.66Q65.59-33.59 64.68-31.54ZM114.84-21.36L114.84-21.36L114.84-21.36Q117.57-26.22 117.57-31.16L117.57-31.16L117.57-31.16Q117.57-34.43 115.22-34.43L115.22-34.43L115.22-34.43Q113.39-34.43 111.49-31.31L111.49-31.31L111.49-31.31Q109.52-28.20 108.91-24.17L108.91-24.17L104.96 0L89.22 1.52L96.98-38.76L109.52-40.28L108.15-32.60L108.15-32.60Q111.87-40.28 120.23-40.28L120.23-40.28L120.23-40.28Q124.64-40.28 127.03-38L127.03-38L127.03-38Q129.43-35.72 129.43-31.05L129.43-31.05L129.43-31.05Q129.43-26.37 126.35-23.41L126.35-23.41L126.35-23.41Q123.27-20.44 118.03-20.44L118.03-20.44L118.03-20.44Q115.75-20.44 114.84-21.36ZM131.86-7.60L131.86-7.60L131.86-7.60Q131.86-9.65 132.92-14.82L132.92-14.82L136.95-35.34L132.47-35.34L132.77-37.62L132.77-37.62Q141.89-40.36 150.71-47.04L150.71-47.04L154.36-47.04L152.53-38.76L158.46-38.76L157.78-35.34L151.92-35.34L148.05-14.82L148.05-14.82Q147.06-10.11 147.06-8.51L147.06-8.51L147.06-8.51Q147.06-4.86 150.25-4.10L150.25-4.10L150.25-4.10Q149.49-1.52 146.76 0L146.76 0L146.76 0Q144.02 1.52 140.14 1.52L140.14 1.52L140.14 1.52Q136.27 1.52 134.06-0.91L134.06-0.91L134.06-0.91Q131.86-3.34 131.86-7.60ZM176.32-4.18L176.32-4.18L176.32-4.18Q173.96 1.52 166.44 1.52L166.44 1.52L166.44 1.52Q162.56 1.52 160.13-1.14L160.13-1.14L160.13-1.14Q158.08-3.50 158.08-5.85L158.08-5.85L158.08-5.85Q158.08-12.01 160.89-24.02L160.89-24.02L163.70-38.76L179.13-40.28L174.50-16.26L174.50-16.26Q173.20-10.64 173.20-8.66L173.20-8.66L173.20-8.66Q173.20-4.33 176.32-4.18ZM165.07-49.32L165.07-49.32L165.07-49.32Q165.07-52.29 167.54-53.88L167.54-53.88L167.54-53.88Q170.01-55.48 173.58-55.48L173.58-55.48L173.58-55.48Q177.16-55.48 179.32-53.88L179.32-53.88L179.32-53.88Q181.49-52.29 181.49-49.32L181.49-49.32L181.49-49.32Q181.49-46.36 179.09-44.84L179.09-44.84L179.09-44.84Q176.70-43.32 173.13-43.32L173.13-43.32L173.13-43.32Q169.56-43.32 167.31-44.84L167.31-44.84L167.31-44.84Q165.07-46.36 165.07-49.32ZM206.57-21.36L206.57-21.36L206.57-21.36Q209.30-26.22 209.30-31.16L209.30-31.16L209.30-31.16Q209.30-34.43 206.95-34.43L206.95-34.43L206.95-34.43Q205.12-34.43 203.22-31.31L203.22-31.31L203.22-31.31Q201.25-28.20 200.64-24.17L200.64-24.17L196.69 0L180.96 1.52L188.71-38.76L201.25-40.28L199.88-32.60L199.88-32.60Q203.60-40.28 211.96-40.28L211.96-40.28L211.96-40.28Q216.37-40.28 218.77-38L218.77-38L218.77-38Q221.16-35.72 221.16-31.05L221.16-31.05L221.16-31.05Q221.16-26.37 218.08-23.41L218.08-23.41L218.08-23.41Q215.00-20.44 209.76-20.44L209.76-20.44L209.76-20.44Q207.48-20.44 206.57-21.36ZM215.31-4.48L215.31-4.48L215.31-4.48Q215.31-7.37 217.55-8.97L217.55-8.97L217.55-8.97Q219.79-10.56 222.98-10.56L222.98-10.56L222.98-10.56Q226.18-10.56 228.11-8.97L228.11-8.97L228.11-8.97Q230.05-7.37 230.05-4.48L230.05-4.48L230.05-4.48Q230.05-1.60 227.89-0.04L227.89-0.04L227.89-0.04Q225.72 1.52 222.53 1.52L222.53 1.52L222.53 1.52Q219.34 1.52 217.32-0.04L217.32-0.04L217.32-0.04Q215.31-1.60 215.31-4.48ZM274.44-31.62L274.44-31.62L274.44-31.62Q274.44-28.42 271.78-26.45L271.78-26.45L271.78-26.45Q269.12-24.47 264.78-24.47L264.78-24.47L264.78-24.47Q262.96-24.47 261.90-25.00L261.90-25.00L261.90-25.00Q262.73-26.98 263.00-29.45L263.00-29.45L263.00-29.45Q263.26-31.92 263.26-32.60L263.26-32.60L263.26-32.60Q263.26-35.80 261.06-35.80L261.06-35.80L261.06-35.80Q259.54-35.80 257.83-33.90L257.83-33.90L257.83-33.90Q256.12-32.00 254.68-29.03L254.68-29.03L254.68-29.03Q251.48-22.19 251.48-15.28L251.48-15.28L251.48-15.28Q251.48-11.48 252.93-9.77L252.93-9.77L252.93-9.77Q254.37-8.06 257.56-8.06L257.56-8.06L257.56-8.06Q261.97-8.06 265.47-11.70L265.47-11.70L265.47-11.70Q266.46-12.84 266.99-14.14L266.99-14.14L266.99-14.14Q269.88-12.62 269.88-8.44L269.88-8.44L269.88-8.44Q269.88-4.18 265.16-1.37L265.16-1.37L265.16-1.37Q260.30 1.52 252.55 1.52L252.55 1.52L252.55 1.52Q237.12 1.52 237.12-14.82L237.12-14.82L237.12-14.82Q237.12-26.75 243.88-33.59L243.88-33.59L243.88-33.59Q250.42-40.28 262.43-40.28L262.43-40.28L262.43-40.28Q274.44-40.28 274.44-31.62ZM293.06 1.52L293.06 1.52L293.06 1.52Q276.34 1.52 276.34-14.21L276.34-14.21L276.34-14.21Q276.34-25.38 282.49-32.60L282.49-32.60L282.49-32.60Q289.03-40.28 300.35-40.28L300.35-40.28L300.35-40.28Q308.56-40.28 312.74-36.48L312.74-36.48L312.74-36.48Q316.92-32.68 316.92-24.70L316.92-24.70L316.92-24.70Q316.92-12.54 310.38-5.47L310.38-5.47L310.38-5.47Q304 1.52 293.06 1.52ZM295.03-31.54L295.03-31.54L295.03-31.54Q294.12-29.49 293.40-26.41L293.40-26.41L293.40-26.41Q292.68-23.33 291.76-18.47L291.76-18.47L291.76-18.47Q290.85-13.60 290.85-7.60L290.85-7.60L290.85-7.60Q290.85-5.62 291.50-4.33L291.50-4.33L291.50-4.33Q292.14-3.04 293.89-3.04L293.89-3.04L293.89-3.04Q295.64-3.04 296.74-3.88L296.74-3.88L296.74-3.88Q297.84-4.71 298.68-6.69L298.68-6.69L298.68-6.69Q300.20-10.18 301.42-16.68L301.42-16.68L301.42-16.68Q302.63-23.18 302.75-25.99L302.75-25.99L302.75-25.99Q302.86-28.80 302.86-30.89L302.86-30.89L302.86-30.89Q302.86-32.98 302.25-34.35L302.25-34.35L302.25-34.35Q301.64-35.72 299.93-35.72L299.93-35.72L299.93-35.72Q298.22-35.72 297.08-34.66L297.08-34.66L297.08-34.66Q295.94-33.59 295.03-31.54ZM376.12 1.52L376.12 1.52L376.12 1.52Q366.93 1.52 366.93-5.62L366.93-5.62L366.93-5.62Q366.93-8.74 368.26-14.78L368.26-14.78L368.26-14.78Q369.59-20.82 370.04-23.26L370.04-23.26L370.04-23.26Q371.11-28.80 371.11-30.55L371.11-30.55L371.11-30.55Q371.11-34.43 368.22-34.43L368.22-34.43L368.22-34.43Q366.32-34.43 364.50-31.81L364.50-31.81L364.50-31.81Q362.67-29.18 361.84-23.94L361.84-23.94L357.12 0L342.30 1.52L346.41-19.15L346.41-19.15Q347.09-22.57 347.70-26.45L347.70-26.45L347.70-26.45Q348.31-30.32 348.31-30.93L348.31-30.93L348.31-30.93Q348.31-34.43 345.72-34.43L345.72-34.43L345.72-34.43Q343.98-34.43 342.08-31.84L342.08-31.84L342.08-31.84Q340.18-29.26 339.11-23.94L339.11-23.94L334.48 0L319.50 1.52L327.48-38.76L339.87-40.28L338.58-32.60L338.58-32.60Q340.56-36.71 344.20-38.49L344.20-38.49L344.20-38.49Q347.85-40.28 353.55-40.28L353.55-40.28L353.55-40.28Q356.82-40.28 358.95-38.68L358.95-38.68L358.95-38.68Q361.08-37.09 361.76-34.50L361.76-34.50L361.76-34.50Q363.05-37.16 366.36-38.72L366.36-38.72L366.36-38.72Q369.66-40.28 373.73-40.28L373.73-40.28L373.73-40.28Q377.80-40.28 379.81-39.41L379.81-39.41L379.81-39.41Q381.82-38.53 383.04-37.09L383.04-37.09L383.04-37.09Q385.09-34.43 385.09-29.56L385.09-29.56L385.09-29.56Q385.09-24.78 383.04-14.82L383.04-14.82L383.04-14.82Q381.98-9.96 381.98-8.17L381.98-8.17L381.98-8.17Q381.98-6.38 383.00-5.32L383.00-5.32L383.00-5.32Q384.03-4.26 385.55-4.10L385.55-4.10L385.55-4.10Q384.79-1.52 382.17 0L382.17 0L382.17 0Q379.54 1.52 376.12 1.52Z" fill="none" stroke="#aad4ff" stroke-width="1.6"></path></g></g><style>text {
  font-size: 64px;
  font-family: Arial Black;
  dominant-baseline: central;
  text-anchor: middle;
}</style></svg>